<?xml version="1.0" standalone="no"?>
<!DOCTYPE svg PUBLIC "-//W3C//DTD SVG 1.1//EN" "http://www.w3.org/Graphics/SVG/1.1/DTD/svg11.dtd" >
<svg xmlns="http://www.w3.org/2000/svg" xmlns:xlink="http://www.w3.org/1999/xlink" version="1.1">
<metadata>
Created by FontForge 20170731 at Fri Apr  1 18:11:02 2022
 By Aleksey,,,
Copyright (C) 1993; Type Market Ltd. Moscow, 119136, Box 20; phone:(095)142-77-12
</metadata>
<defs>
<font id="HeliosCond-Italic" horiz-adv-x="983" >
  <font-face 
    font-family="HeliosCond"
    font-weight="400"
    font-style="italic"
    font-stretch="normal"
    units-per-em="2048"
    panose-1="4 0 5 0 0 0 0 0 0 0"
    ascent="1624"
    descent="-424"
    x-height="1094"
    cap-height="1475"
    bbox="-188 -424 2052 1958"
    underline-thickness="118"
    underline-position="-302"
    slope="-12"
    unicode-range="U+0020-2122"
  />
<missing-glyph horiz-adv-x="1024" 
 />
    <glyph glyph-name=".notdef" horiz-adv-x="1024" 
 />
    <glyph glyph-name=".null" horiz-adv-x="0" 
 />
    <glyph glyph-name="nonmarkingreturn" horiz-adv-x="682" 
 />
    <glyph glyph-name="space" unicode=" " horiz-adv-x="491" 
 />
    <glyph glyph-name="space" unicode="&#xa0;" horiz-adv-x="491" 
 />
    <glyph glyph-name="exclam" unicode="!" horiz-adv-x="653" 
d="M436 1475h178l-96 -453l-186 -662h-88l96 662zM164 197h178l-41 -197h-178z" />
    <glyph glyph-name="quotedbl" unicode="&#x22;" horiz-adv-x="491" 
d="M39 1010l94 444h103l-95 -444h-102zM258 1010l94 444h103l-95 -444h-102z" />
    <glyph glyph-name="numbersign" unicode="#" 
d="M-92 0l262 500h-211l59 116h211l127 244h-213l62 117h211l260 498h108l-260 -498h178l254 498h111l-258 -498h215l-57 -117h-222l-124 -244h217l-54 -116h-225l-260 -500h-109l261 500h-172l-265 -500h-106zM340 616h170l129 244h-174z" />
    <glyph glyph-name="dollar" unicode="$" 
d="M973 1081h-160q12 62 12 107q0 76 -36.5 107.5t-106.5 31.5l-107 -502q66 -33 107 -56t82.5 -54.5t64 -62t36.5 -72t14 -91.5q0 -227 -136 -372.5t-348 -145.5l-43 -198h-86l43 198q-159 0 -228 73.5t-69 209.5q0 87 25 203h158q-23 -115 -23 -172q0 -87 39.5 -124.5
t128.5 -37.5l117 549q-52 28 -85.5 48t-75 52t-65 63.5t-40.5 76t-17 94.5q0 94 38 181.5t100 150t145.5 100t171.5 37.5l26 129h86l-26 -129q141 0 206.5 -72.5t65.5 -196.5q0 -65 -14 -125zM498 858l98 469q-37 0 -78 -17.5t-80 -50.5t-64.5 -90t-25.5 -127q0 -66 37 -105
t113 -79zM537 641l-111 -518q134 0 205 92t71 234q0 71 -38.5 111t-126.5 81z" />
    <glyph glyph-name="percent" unicode="%" horiz-adv-x="1638" 
d="M1329 1475l-971 -1506h-106l977 1506h100zM1217 713q206 0 206 -224q0 -101 -21 -184t-56 -138.5t-81.5 -94t-96.5 -55.5t-103 -17q-102 0 -154.5 48t-52.5 159q0 86 21 171.5t62 162t113 124.5t163 48zM1194 602q-49 0 -89.5 -37.5t-65 -95.5t-37.5 -120.5t-13 -117.5
q0 -120 103 -120q59 0 101.5 42t62 106.5t28 119.5t8.5 102q0 121 -98 121zM526 1448q207 0 207 -223q0 -125 -31.5 -222.5t-84 -154t-114.5 -85t-128 -28.5q-102 0 -154.5 48t-52.5 159q0 86 20.5 171.5t61.5 162t113 124.5t163 48zM504 1337q-64 0 -113 -64.5t-70.5 -147
t-21.5 -158.5q0 -121 102 -121q59 0 101.5 42t62.5 106.5t28.5 120t8.5 102.5q0 120 -98 120z" />
    <glyph glyph-name="ampersand" unicode="&#x26;" horiz-adv-x="1310" 
d="M616 922q51 34 83 60t68.5 64.5t54.5 83.5t18 97t-27 84t-82 32q-79 0 -127.5 -64.5t-48.5 -145.5q0 -91 61 -211zM928 268l133 -268h-197l-61 131q-169 -166 -383 -166q-168 0 -261 84t-93 232q0 356 411 559q-42 71 -64 129.5t-22 124.5q0 147 109.5 264t257.5 117
q114 0 181 -59t67 -161q0 -57 -20 -112.5t-52.5 -101t-78 -89t-91.5 -76.5t-98 -63l194 -414q77 142 117 277h145q-76 -257 -194 -408zM741 250l-219 477q-131 -75 -206.5 -179t-75.5 -229q0 -97 61 -151.5t168 -54.5q131 0 272 137z" />
    <glyph glyph-name="quotesingle" unicode="'" horiz-adv-x="491" 
d="M147 1010l95 444h102l-94 -444h-103z" />
    <glyph glyph-name="parenleft" unicode="(" horiz-adv-x="655" 
d="M657 1475h105q-106 -135 -191.5 -281t-156 -317.5t-109.5 -368t-39 -399.5q0 -265 103 -533h-115q-137 342 -137 643q0 141 27 279.5t73 261.5t116 249t148 236.5t176 229.5z" />
    <glyph glyph-name="parenright" unicode=")" horiz-adv-x="655" 
d="M289 1475h114q138 -345 138 -644q0 -151 -30.5 -299.5t-79.5 -272t-122.5 -250.5t-145.5 -226t-163 -207h-104q491 670 491 1366q0 271 -98 533z" />
    <glyph glyph-name="asterisk" unicode="*" 
d="M506 1475h102l-51 -240l236 80l12 -94l-242 -74l111 -189l-94 -63l-113 195l-180 -185l-72 53l186 183l-202 88l51 86l205 -86z" />
    <glyph glyph-name="plus" unicode="+" 
d="M528 993h140l-90 -424h337l-30 -139h-338l-90 -430h-140l91 430h-338l30 139h338z" />
    <glyph glyph-name="comma" unicode="," horiz-adv-x="491" 
d="M209 197h178l-49 -232q-18 -86 -81 -157t-151 -95l19 88q102 27 139 199h-96z" />
    <glyph glyph-name="hyphen" unicode="-" horiz-adv-x="684" 
d="M121 569h512l-29 -139h-512z" />
    <glyph glyph-name="hyphen" unicode="&#xad;" horiz-adv-x="684" 
d="M121 569h512l-29 -139h-512z" />
    <glyph glyph-name="period" unicode="." horiz-adv-x="491" 
d="M178 197h178l-41 -197h-178z" />
    <glyph glyph-name="slash" unicode="/" horiz-adv-x="544" 
d="M610 1477h121l-799 -1528h-120z" />
    <glyph glyph-name="zero" unicode="0" 
d="M301 725q-53 -247 -53 -379q0 -229 155 -229q61 0 112.5 35t87.5 89.5t68 139t53 163t42 181.5q47 216 47 358q0 244 -151 244q-44 0 -83.5 -20.5t-70.5 -53t-59.5 -82t-49 -100t-40 -114.5t-32.5 -116.5t-26 -115.5zM373 -31q-84 0 -143 26.5t-91.5 77t-46.5 111.5
t-14 140q0 144 53 401q15 73 30.5 133t42 141t56 143.5t73.5 127.5t94.5 107.5t118.5 70t146 27.5q295 0 295 -371q0 -129 -51 -379q-14 -66 -25 -114.5t-29.5 -115t-37 -115.5t-45.5 -107t-56 -99.5t-68.5 -82t-83.5 -66t-99.5 -41t-118.5 -15.5z" />
    <glyph glyph-name="one" unicode="1" 
d="M342 0l229 1075h-313l29 131q86 0 143.5 10t110 38.5t89.5 82t64 138.5h127l-315 -1475h-164z" />
    <glyph glyph-name="two" unicode="2" 
d="M350 973h-162q32 230 165.5 366t330.5 136q152 0 229.5 -76.5t77.5 -212.5q0 -83 -21.5 -159t-54 -133.5t-86 -117t-102.5 -101.5t-119 -95q-265 -200 -330 -264t-102 -169h619l-33 -147h-793q18 84 39 144t56 122t89 119.5t132 122.5t192 145q71 50 125 98t106 112
t80.5 140.5t28.5 159.5q0 164 -174 164q-56 0 -100.5 -18.5t-73.5 -48t-52.5 -78t-38 -95.5t-28.5 -114z" />
    <glyph glyph-name="three" unicode="3" 
d="M408 686l32 148q189 0 279 91.5t90 245.5q0 156 -166 156q-109 0 -176.5 -82t-93.5 -207h-156q40 191 165 314t302 123q138 0 216.5 -73.5t78.5 -199.5q0 -151 -82 -274.5t-223 -157.5q196 -46 196 -258q0 -103 -33.5 -199t-96 -173.5t-161 -124t-217.5 -46.5
q-161 0 -240 84.5t-79 231.5q0 73 18 153h162q-16 -72 -16 -133q0 -188 186 -188q100 0 172.5 56t106 142t33.5 189q0 109 -68 145.5t-229 36.5z" />
    <glyph glyph-name="four" unicode="4" 
d="M735 1219l-557 -703h408zM47 518l756 957h151l-204 -959h131l-31 -147h-131l-80 -369h-164l80 369h-539z" />
    <glyph glyph-name="five" unicode="5" 
d="M408 1446h626l-33 -148h-495l-158 -436q66 55 127 81t133 26q152 0 223.5 -88.5t71.5 -233.5q0 -91 -21 -184.5t-65.5 -182.5t-106.5 -158t-150 -111t-189 -42q-318 0 -318 279q0 54 17 137h170q-15 -73 -15 -104q0 -164 174 -164q77 0 141.5 48t104.5 123.5t62 162.5
t22 170q0 200 -190 200q-149 0 -236 -135h-145z" />
    <glyph glyph-name="six" unicode="6" 
d="M549 788q-76 0 -134 -35t-90.5 -86t-53 -118t-27 -121t-6.5 -106q0 -109 46 -157t134 -48q67 0 123 36t90.5 90t58.5 121t33.5 125.5t9.5 106.5q0 192 -184 192zM987 1122h-162q6 35 6 62q0 76 -42.5 109.5t-124.5 33.5q-42 0 -82.5 -24t-72.5 -61t-63 -90t-53 -103.5
t-43 -110.5t-33.5 -101t-23.5 -83h2q61 91 144.5 136.5t166.5 45.5q152 0 226.5 -87.5t74.5 -230.5q0 -84 -23 -174.5t-69 -175t-107 -151.5t-144 -107.5t-173 -40.5q-92 0 -157 27t-100 76.5t-50.5 109.5t-15.5 137q0 121 45 334q19 87 32.5 144t42.5 151.5t58.5 158.5
t77.5 139.5t102.5 121t130.5 76.5t164 31q125 0 199.5 -74t74.5 -195q0 -45 -8 -84z" />
    <glyph glyph-name="seven" unicode="7" 
d="M281 1446h811l-29 -137q-270 -282 -464 -617t-300 -692h-184q118 352 325.5 683t487.5 615h-678z" />
    <glyph glyph-name="eight" unicode="8" 
d="M530 715q-64 0 -117 -27.5t-87.5 -71.5t-59 -101t-35 -114t-10.5 -112q0 -172 182 -172q70 0 126 28t89 70.5t55 98t30 105t8 97.5q0 90 -43.5 144.5t-137.5 54.5zM662 1327q-65 0 -114.5 -29.5t-76.5 -77t-40 -99.5t-13 -105q0 -154 151 -154q79 0 135.5 48t81.5 117.5
t25 150.5q0 149 -149 149zM426 795v2q-89 18 -133.5 78.5t-44.5 150.5q0 60 16.5 121.5t53 120.5t87 105t125.5 74t162 28q149 0 221 -77t72 -194q0 -142 -82.5 -261t-216.5 -146v-2q84 -16 139.5 -85.5t55.5 -185.5q0 -37 -6 -80t-22 -98t-40.5 -106.5t-65 -101t-91.5 -87
t-124 -60t-159 -22.5q-326 0 -326 291q0 206 110 354.5t269 180.5z" />
    <glyph glyph-name="nine" unicode="9" 
d="M651 1327q-73 0 -131.5 -39.5t-91.5 -96t-55 -126t-29.5 -122t-7.5 -91.5q0 -197 174 -197q85 0 149.5 43t100 112.5t52.5 144t17 151.5q0 221 -178 221zM676 1475q92 0 157 -27t100 -77t50.5 -110t15.5 -137q0 -118 -45 -331q-14 -66 -23.5 -110t-28.5 -117t-37.5 -124
t-47.5 -118t-59.5 -113.5t-74 -95.5t-91 -78.5t-109.5 -48.5t-131 -19q-135 0 -209.5 68t-74.5 188q0 56 10 97h166q-8 -36 -8 -72q0 -66 38 -99.5t121 -33.5q44 0 84.5 21.5t71.5 52.5t62 83.5t51.5 96.5t44 110.5t35.5 106.5t30 102h-4q-60 -91 -143 -136.5t-166 -45.5
q-152 0 -225.5 86t-73.5 227q0 89 23.5 181.5t69.5 176.5t107 150.5t143 106t171 39.5z" />
    <glyph glyph-name="colon" unicode=":" horiz-adv-x="491" 
d="M86 197h178l-41 -197h-178zM272 1075h179l-41 -196h-179z" />
    <glyph glyph-name="semicolon" unicode=";" horiz-adv-x="491" 
d="M117 197h178l-49 -232q-18 -86 -81 -157t-151 -95l19 88q102 27 139 199h-96zM303 1075h178l-41 -196h-178z" />
    <glyph glyph-name="less" unicode="&#x3c;" 
d="M236 500l587 -375l-30 -143l-725 454l28 127l918 455l-31 -144z" />
    <glyph glyph-name="equal" unicode="=" 
d="M141 758h813l-30 -140h-813zM61 381h813l-30 -139h-813z" />
    <glyph glyph-name="greater" unicode="&#x3e;" 
d="M2 125l748 375l-588 374l31 144l725 -455l-29 -127l-918 -454z" />
    <glyph glyph-name="question" unicode="?" 
d="M532 338h-178q31 149 73.5 224.5t168.5 180.5q264 220 264 412q0 75 -41 123.5t-125 48.5q-70 0 -122.5 -24.5t-86 -71.5t-53.5 -98.5t-35 -122.5h-172q20 93 59.5 174.5t98.5 147.5t144.5 104.5t187.5 38.5q159 0 241 -70t82 -197q0 -76 -18 -143.5t-45 -116t-72.5 -101
t-85 -89t-98.5 -91.5t-98 -96q-30 -31 -48.5 -77.5t-40.5 -155.5zM324 197h178l-41 -197h-178z" />
    <glyph glyph-name="at" unicode="@" horiz-adv-x="1572" 
d="M918 1053q-74 0 -151 -48.5t-135 -121t-100 -153.5t-57 -150q-4 -16 -4 -50q0 -61 30 -100t89 -39q81 0 179.5 93.5t168.5 213.5t90 211q12 60 -19 102t-91 42zM1137 1040l49 93h135l-332 -601q-37 -68 -45 -102q-6 -25 7 -41t38 -16q76 0 152.5 49t134 123.5t98.5 156.5
t56 152q12 56 12 107q0 126 -67 222.5t-176.5 145.5t-242.5 49q-178 0 -346 -91t-284.5 -243t-155.5 -329q-14 -63 -14 -133q0 -223 148 -369.5t378 -146.5q153 0 311.5 74t274.5 202h116q-129 -171 -327 -272t-395 -101q-180 0 -319 77t-213.5 211t-74.5 302q0 84 17 162
q32 152 121.5 292t212 241t274 161t303.5 60q161 0 288 -62t199 -176.5t72 -261.5q0 -66 -14 -129q-19 -92 -75.5 -192.5t-134 -185.5t-179 -140.5t-199.5 -55.5q-58 0 -100.5 25t-48.5 76q-55 -47 -125 -74t-134 -27q-103 0 -161 63t-58 161q0 36 9 73q22 101 80.5 206.5
t140 194t188 145t211.5 56.5q71 0 124.5 -34t70.5 -97z" />
    <glyph glyph-name="A" unicode="A" horiz-adv-x="1112" 
d="M-86 0l735 1475h217l99 -1475h-181l-26 424h-465l-199 -424h-180zM754 571l-25 785h-4l-360 -785h389z" />
    <glyph glyph-name="B" unicode="B" horiz-adv-x="1091" 
d="M483 1327l-102 -479h203q67 0 122.5 17t100 54t69.5 101t25 151q0 156 -199 156h-219zM350 700l-117 -553h244q147 0 235.5 95t88.5 274q0 184 -221 184h-230zM37 0l315 1475h387q169 0 252.5 -71t83.5 -198q0 -151 -82 -272t-211 -150l-2 -4q86 -11 138.5 -80t52.5 -176
q0 -121 -41.5 -221t-113 -166t-167.5 -101.5t-205 -35.5h-407z" />
    <glyph glyph-name="C" unicode="C" horiz-adv-x="1101" 
d="M1100 1032h-164q14 60 14 121q0 203 -209 203q-59 0 -110.5 -24t-88.5 -58.5t-70.5 -91.5t-53.5 -104t-40 -116t-29 -106.5t-21 -95.5q-49 -230 -49 -379q0 -61 9.5 -107.5t31 -84t61 -57t96.5 -19.5q62 0 112 21.5t84 55t64 91t49.5 113t42.5 138.5h164
q-36 -136 -78.5 -233.5t-105 -176t-150.5 -118t-202 -39.5q-353 0 -353 400q0 146 52 391q17 78 36 146.5t48.5 146.5t64 141t83.5 123t105 100.5t129.5 65t157.5 24.5q166 0 250 -91t84 -245q0 -69 -14 -135z" />
    <glyph glyph-name="D" unicode="D" horiz-adv-x="1183" 
d="M37 0l315 1475h406q113 0 193 -29.5t124 -85t63 -123.5t19 -156q0 -130 -45 -344q-156 -737 -641 -737h-434zM483 1327l-250 -1180h263q178 0 279 142t173 477q35 169 35 289q0 134 -55 203t-183 69h-262z" />
    <glyph glyph-name="E" unicode="E" horiz-adv-x="991" 
d="M352 1475h740l-33 -148h-576l-102 -479h539l-31 -148h-539l-117 -553h578l-33 -147h-741z" />
    <glyph glyph-name="F" unicode="F" horiz-adv-x="874" 
d="M352 1475h692l-32 -148h-529l-102 -479h491l-30 -148h-492l-149 -700h-164z" />
    <glyph glyph-name="G" unicode="G" horiz-adv-x="1159" 
d="M575 610l33 148h494l-162 -758h-127l47 219h-4q-58 -122 -167 -188t-236 -66q-100 0 -171 27.5t-110.5 79t-56.5 115.5t-17 147q0 127 52 379q18 85 38 158t51 155.5t67 149t87.5 129.5t111.5 105t139 67.5t169 25.5q175 0 260.5 -86.5t85.5 -247.5q0 -68 -10 -122h-166
q12 55 12 102q0 98 -52 152.5t-161 54.5q-78 0 -141.5 -29.5t-111 -81.5t-87 -135.5t-68.5 -180.5t-57 -227q-45 -206 -45 -342q0 -123 47 -185t158 -62q63 0 116 16t92 41.5t71.5 66.5t54 80.5t41 94.5t30.5 98t23 100h-330z" />
    <glyph glyph-name="H" unicode="H" horiz-adv-x="1198" 
d="M516 1475l-135 -627h563l135 627h164l-315 -1475h-164l149 700h-563l-149 -700h-164l315 1475h164z" />
    <glyph glyph-name="I" unicode="I" horiz-adv-x="471" 
d="M516 1475l-315 -1475h-164l315 1475h164z" />
    <glyph glyph-name="J" unicode="J" horiz-adv-x="886" 
d="M768 1475h164l-236 -1117q-45 -212 -152.5 -302.5t-273.5 -90.5q-143 0 -207.5 61t-64.5 181q0 68 39 250h164q-39 -172 -39 -221q0 -59 30.5 -91t104.5 -32q60 0 102.5 20t68 59.5t39 78.5t25.5 96z" />
    <glyph glyph-name="K" unicode="K" horiz-adv-x="1103" 
d="M516 1475l-162 -758l699 758h204l-602 -617l301 -858h-190l-238 729l-217 -215l-110 -514h-164l315 1475h164z" />
    <glyph glyph-name="L" unicode="L" horiz-adv-x="974" 
d="M516 1475l-283 -1328h603l-33 -147h-766l315 1475h164z" />
    <glyph glyph-name="M" unicode="M" horiz-adv-x="1538" 
d="M352 1475h289q43 -1129 43 -1186q0 -51 -14 -183h4q53 161 82 220l538 1149h289l-315 -1475h-164l305 1401h-6q-58 -127 -92 -197l-566 -1204h-194l-49 1221q-4 122 -4 180h-4q-8 -80 -35 -191l-258 -1210h-164z" />
    <glyph glyph-name="N" unicode="N" horiz-adv-x="1206" 
d="M352 1475h266l160 -1207q17 -110 19 -162h6q13 95 28 164l256 1205h164l-315 -1475h-268l-160 1180q-10 78 -10 221h-2q-20 -108 -45 -225l-250 -1176h-164z" />
    <glyph glyph-name="O" unicode="O" horiz-adv-x="1198" 
d="M803 1503q368 0 368 -418q0 -152 -43 -346q-21 -96 -41.5 -172t-51 -159t-66 -145.5t-85 -120.5t-107.5 -95.5t-135 -59.5t-167 -22q-104 0 -177.5 28t-115 82t-60 122t-18.5 157q0 139 52 385q17 81 36 149.5t49 149t64.5 144.5t85 126t109 103.5t136.5 66.5t167 25z
M768 1356q-74 0 -135.5 -30.5t-107 -81.5t-83 -128.5t-63.5 -161t-49 -188.5q-51 -244 -51 -387q0 -135 52.5 -200.5t176.5 -65.5q80 0 142.5 28t108 77.5t83.5 133.5t65 179.5t56 232.5q34 164 34 301q0 140 -52.5 215.5t-176.5 75.5z" />
    <glyph glyph-name="P" unicode="P" horiz-adv-x="1120" 
d="M483 1327l-116 -555h159q142 0 210 21.5t116 66.5q40 39 72 121.5t32 163.5q0 100 -67 141t-199 41h-207zM334 625l-133 -625h-164l315 1475h410q176 0 272 -72.5t96 -220.5q0 -35 -4 -73.5t-19 -95.5t-38.5 -107.5t-68.5 -103.5t-104 -91t-148.5 -62t-198.5 -24h-215z
" />
    <glyph glyph-name="Q" unicode="Q" horiz-adv-x="1200" 
d="M897 176l139 -141l-104 -103l-135 138q-58 -47 -147.5 -76t-170.5 -29q-105 0 -179.5 29t-116.5 83.5t-60.5 124t-18.5 160.5q0 133 54 388q17 81 35.5 149t48.5 147.5t64.5 142.5t84 123.5t108 101t136.5 65t168 24.5q86 0 151 -21t105.5 -56.5t66 -88.5t35.5 -110
t10 -127q0 -218 -88 -523.5t-186 -400.5zM694 166l-121 117l109 108l121 -112q73 102 133.5 361.5t60.5 438.5q0 277 -229 277q-72 0 -132.5 -29t-106 -79t-83.5 -126t-65.5 -162t-50.5 -194q-51 -239 -51 -381q0 -131 52 -201.5t175 -70.5q102 0 188 53z" />
    <glyph glyph-name="R" unicode="R" horiz-adv-x="1163" 
d="M340 649l-139 -649h-164l315 1475h449q169 0 261.5 -71.5t92.5 -215.5q0 -78 -25 -154.5t-69 -139.5t-111 -106.5t-145 -54.5l-2 -4q92 -10 142 -75t50 -167q0 -40 -27.5 -174.5t-27.5 -199.5q0 -19 2.5 -32.5t7.5 -28t6 -19.5l-8 -33h-166q-6 46 -6 94q0 82 22.5 196
t22.5 156q0 203 -215 203h-266zM483 1327l-112 -530h284q40 0 82 10.5t86.5 36.5t79 65t56.5 103t22 143q0 97 -58.5 134.5t-160.5 37.5h-279z" />
    <glyph glyph-name="S" unicode="S" horiz-adv-x="1093" 
d="M84 467h164q-19 -101 -19 -145q0 -103 52.5 -156t171.5 -53q151 0 247.5 84.5t96.5 248.5q0 82 -45 124t-144 83l-200 82q-170 71 -170 262q0 221 141.5 363.5t355.5 142.5q166 0 254 -79.5t88 -231.5q0 -43 -10 -105h-164q10 52 10 84q0 87 -49.5 136t-146.5 49
q-80 0 -141 -28.5t-95.5 -76.5t-51.5 -104.5t-17 -118.5q0 -53 22 -84.5t70 -50.5l215 -88q252 -103 252 -322q0 -123 -44.5 -223t-121 -163.5t-176.5 -97.5t-213 -34q-171 0 -260.5 88t-89.5 252q0 73 18 162z" />
    <glyph glyph-name="T" unicode="T" horiz-adv-x="985" 
d="M741 1327l-282 -1327h-164l283 1327h-383l32 148h928l-33 -148h-381z" />
    <glyph glyph-name="U" unicode="U" horiz-adv-x="1191" 
d="M354 1475h164l-225 -1061q-14 -58 -14 -111q0 -190 229 -190q63 0 114 13.5t86 39.5t59.5 53.5t41 66t25 65.5t16.5 63l225 1061h164l-238 -1121q-40 -192 -178.5 -290.5t-345.5 -98.5q-177 0 -275 72.5t-98 214.5q0 42 13 102z" />
    <glyph glyph-name="V" unicode="V" horiz-adv-x="1093" 
d="M457 119l633 1356h180l-740 -1475h-202l-107 1475h180l52 -1356h4z" />
    <glyph glyph-name="W" unicode="W" horiz-adv-x="1636" 
d="M860 1001l-428 -1001h-201v1475h181l-25 -1016q-3 -141 -29 -340h4q69 211 117 327l436 1029h203l-22 -1016q-2 -99 -29 -340h4q74 225 117 327l434 1029h180l-661 -1475h-203l16 1001q2 108 37 363h-8q-10 -32 -31 -98.5t-31.5 -100t-27.5 -80.5t-33 -84z" />
    <glyph glyph-name="X" unicode="X" horiz-adv-x="1083" 
d="M250 1475h182l186 -576l433 576h182l-549 -717l242 -758h-187l-182 616l-451 -616h-182l570 758z" />
    <glyph glyph-name="Y" unicode="Y" horiz-adv-x="1075" 
d="M211 1475h180l187 -740l503 740h181l-637 -904l-123 -571h-164l123 571z" />
    <glyph glyph-name="Z" unicode="Z" horiz-adv-x="1067" 
d="M313 1475h846l-31 -142l-948 -1186h707l-33 -147h-874l30 141l948 1186h-677z" />
    <glyph glyph-name="bracketleft" unicode="[" horiz-adv-x="655" 
d="M397 1475h346l-26 -123h-191l-348 -1641h191l-27 -123h-346z" />
    <glyph glyph-name="backslash" unicode="\" horiz-adv-x="491" 
d="M281 0l-185 1475h115l184 -1475h-114z" />
    <glyph glyph-name="bracketright" unicode="]" horiz-adv-x="653" 
d="M313 1475h349l-402 -1887h-348l27 123h192l348 1641h-192z" />
    <glyph glyph-name="asciicircum" unicode="^" 
d="M530 1475h97l133 -822h-107l-108 666l-391 -666h-105z" />
    <glyph glyph-name="underscore" unicode="_" 
d="M971 -233h-983l24 114h983z" />
    <glyph glyph-name="grave" unicode="`" horiz-adv-x="655" 
d="M98 1503h215l117 -276h-131z" />
    <glyph glyph-name="a" unicode="a" horiz-adv-x="888" 
d="M600 596q-38 -19 -90 -41t-89 -36.5t-79 -37t-70 -47.5t-51.5 -64.5t-34.5 -90.5q-8 -32 -8 -56q0 -112 119 -112q199 0 248 221zM317 799h-139q70 323 385 323q131 0 192.5 -57.5t61.5 -151.5q0 -29 -8 -69l-137 -645q-4 -20 -4 -35q0 -53 45 -53q19 0 35 4l-25 -115
q-20 -12 -66 -12q-43 0 -65 4t-40 20.5t-24 48t-6 86.5h-2q-44 -73 -123.5 -124.5t-156.5 -51.5q-226 0 -226 197q0 96 22.5 167t70.5 122t109.5 86t152.5 67q132 47 211 82q37 17 55 78.5t18 120.5q0 54 -31 77t-104 23q-86 0 -133 -47t-68 -145z" />
    <glyph glyph-name="b" unicode="b" horiz-adv-x="978" 
d="M500 1475l-105 -494h4q118 141 258 141q256 0 256 -305q0 -14 -2 -43.5t-8.5 -84.5t-16.5 -115t-29.5 -131.5t-44.5 -136.5t-63 -127t-84 -107.5t-109 -73t-136 -27.5q-83 0 -132.5 26.5t-76.5 113.5h-2l-23 -111h-155l313 1475h156zM598 991q-77 0 -139.5 -62.5
t-97.5 -150.5t-59 -192t-32 -177t-8 -116q0 -191 150 -191q78 0 140.5 61t98 146.5t59.5 186.5t32 171t8 109q0 215 -152 215z" />
    <glyph glyph-name="c" unicode="c" horiz-adv-x="888" 
d="M573 991q-67 0 -119.5 -38t-89 -108.5t-59.5 -143.5t-43 -169q-33 -153 -33 -237q0 -193 150 -193q41 0 74.5 10.5t58 33t42.5 45.5t33 59.5t24 63t20 67.5h147q-18 -82 -51 -152.5t-83 -129.5t-123 -93.5t-161 -34.5q-160 0 -227 80t-67 221q0 98 34 260
q125 590 504 590q130 0 197 -72.5t67 -193.5q0 -48 -12 -104h-147q10 52 10 88q0 151 -146 151z" />
    <glyph glyph-name="d" unicode="d" horiz-adv-x="985" 
d="M569 991q-77 0 -139.5 -62.5t-97.5 -150.5t-59 -192t-32 -177t-8 -116q0 -191 150 -191q78 0 140.5 61t98 146.5t59.5 186.5t32 171t8 109q0 215 -152 215zM887 1475h155l-313 -1475h-156l29 135h-2q-71 -96 -134 -130t-163 -34q-125 0 -179 76t-54 215q0 113 41 311
q53 248 168.5 398.5t275.5 150.5q81 0 131 -33.5t92 -107.5h4z" />
    <glyph glyph-name="e" unicode="e" horiz-adv-x="897" 
d="M285 641h368q23 117 23 182q0 168 -127 168q-49 0 -90.5 -23.5t-68 -57t-48.5 -84.5t-34 -92t-23 -93zM600 365h156q-36 -172 -143.5 -283t-270.5 -111q-135 0 -203.5 70t-68.5 233q0 123 32 275q123 573 473 573q138 0 195 -79t57 -218q0 -126 -41 -315h-530
q-37 -181 -37 -248q0 -79 34 -119.5t114 -40.5q176 0 233 263z" />
    <glyph glyph-name="f" unicode="f" horiz-adv-x="546" 
d="M135 1092h160l20 96q12 60 25 101t36 79.5t55 61t80.5 36t113.5 13.5q43 0 75 -4l-26 -132q-30 5 -62 5q-61 0 -90.5 -29t-46.5 -111l-24 -116h170l-29 -131h-170l-205 -961h-156l205 961h-160z" />
    <glyph glyph-name="g" unicode="g" horiz-adv-x="985" 
d="M571 991q-65 0 -119.5 -43.5t-89.5 -113.5t-61 -150t-39.5 -161.5t-19.5 -138.5t-6 -91q0 -91 34 -141t115 -50q78 0 140.5 61t98 146.5t59.5 186.5t32 171t8 109q0 215 -152 215zM807 1092h156l-230 -1088q-80 -377 -467 -377q-135 0 -201.5 63.5t-66.5 205.5h152
q0 -74 33.5 -106t103.5 -32q132 0 197.5 59t97.5 210l20 100h-14q-65 -84 -126.5 -120t-137.5 -36q-130 0 -191 70t-61 217q0 121 37 291q19 87 41 159t60.5 152t85.5 135t117 91t154 36q77 0 132 -38.5t79 -114.5h4z" />
    <glyph glyph-name="h" unicode="h" horiz-adv-x="985" 
d="M498 1475l-109 -502h2q139 149 303 149q219 0 219 -192q0 -24 -9.5 -79.5t-52 -259t-126.5 -591.5h-156q84 375 123 557t48.5 235.5t9.5 77.5q0 121 -134 121q-98 0 -174 -67.5t-98 -167.5l-162 -756h-155l315 1475h156z" />
    <glyph glyph-name="i" unicode="i" horiz-adv-x="442" 
d="M416 1094l-234 -1094h-155l233 1094h156zM455 1278h-156l43 197h156z" />
    <glyph glyph-name="j" unicode="j" horiz-adv-x="442" 
d="M258 1094h156l-242 -1137q-40 -191 -113 -260.5t-233 -69.5l31 146q12 -4 28 -4q24 0 43.5 9.5t32 23.5t23 37t16.5 43.5t12 49.5zM453 1278h-156l43 197h156z" />
    <glyph glyph-name="k" unicode="k" horiz-adv-x="901" 
d="M498 1475l-191 -891l488 510h184l-428 -426l205 -668h-183l-155 545l-152 -156l-84 -389h-155l315 1475h156z" />
    <glyph glyph-name="l" unicode="l" horiz-adv-x="442" 
d="M498 1475l-316 -1475h-155l315 1475h156z" />
    <glyph glyph-name="m" unicode="m" horiz-adv-x="1527" 
d="M414 1094l-27 -121h2q137 149 301 149q205 0 221 -166q70 82 154.5 124t167.5 42q221 0 221 -192q0 -51 -27 -178l-161 -752h-156q83 370 122.5 556t48.5 237.5t9 76.5q0 121 -133 121q-98 0 -174 -67.5t-98 -167.5l-162 -756h-156q84 375 123 557t48.5 235.5t9.5 77.5
q0 121 -134 121q-98 0 -174 -67.5t-98 -167.5l-162 -756h-155l233 1094h156z" />
    <glyph glyph-name="n" unicode="n" horiz-adv-x="985" 
d="M416 1094l-27 -121h2q139 149 303 149q219 0 219 -192q0 -24 -9.5 -79.5t-52 -259t-126.5 -591.5h-156q84 375 123 557t48.5 235.5t9.5 77.5q0 121 -134 121q-98 0 -174 -67.5t-98 -167.5l-162 -756h-155l233 1094h156z" />
    <glyph glyph-name="o" unicode="o" horiz-adv-x="987" 
d="M616 1122q299 0 299 -334q0 -89 -30 -239q-35 -164 -85.5 -278t-117.5 -179t-142 -93t-169 -28q-146 0 -223.5 74t-77.5 248q0 98 32 258q122 571 514 571zM588 991q-125 0 -199.5 -104t-126.5 -352q-29 -135 -29 -224q0 -209 166 -209q67 0 119.5 30.5t90.5 90.5
t64 134.5t48 177.5q31 140 31 253q0 107 -39.5 155t-124.5 48z" />
    <glyph glyph-name="p" unicode="p" horiz-adv-x="985" 
d="M606 991q-77 0 -139.5 -62.5t-97.5 -150.5t-59 -192t-32 -177t-8 -116q0 -191 150 -191q78 0 140.5 61t98 146.5t59.5 186.5t32 171t8 109q0 215 -152 215zM422 1094l-27 -123h2q51 72 122.5 111.5t133.5 39.5q269 0 269 -315q0 -103 -29 -242q-28 -132 -66 -234
t-93.5 -186t-135 -129t-178.5 -45q-79 0 -126.5 35.5t-80.5 106.5l-107 -494h-155l315 1475h156z" />
    <glyph glyph-name="q" unicode="q" horiz-adv-x="985" 
d="M799 1094h155l-313 -1475h-156l107 500h-4q-72 -78 -131.5 -113t-130.5 -35q-128 0 -193 81t-65 237q0 115 28 241q27 126 66.5 229.5t95.5 186.5t132 129.5t165 46.5q160 0 217 -141h2zM561 991q-77 0 -139.5 -62.5t-97.5 -150.5t-59 -192t-32 -177t-8 -116
q0 -191 150 -191q78 0 140.5 61t98 146.5t59.5 186.5t32 171t8 109q0 215 -152 215z" />
    <glyph glyph-name="r" unicode="r" horiz-adv-x="638" 
d="M414 1094l-37 -179h2q65 99 138.5 146t174.5 47q9 0 41 -4l-33 -152q-30 6 -63 6q-119 0 -203 -79t-112 -215l-142 -664h-155l233 1094h156z" />
    <glyph glyph-name="s" unicode="s" horiz-adv-x="872" 
d="M805 801h-152q9 41 9 73q0 60 -34.5 88.5t-107.5 28.5q-89 0 -142.5 -60.5t-53.5 -152.5q0 -58 39 -90t120 -63q48 -19 78.5 -32.5t69 -37.5t61 -48.5t38 -61.5t15.5 -80q0 -181 -126.5 -287.5t-313.5 -106.5q-149 0 -215.5 53.5t-66.5 165.5q0 54 16 129h147
q-10 -55 -10 -88q0 -66 35 -97.5t115 -31.5q67 0 122 21t92.5 72.5t37.5 126.5q0 60 -49 97.5t-160 80.5q-207 80 -207 241q0 166 112.5 273.5t270.5 107.5q131 0 200.5 -58.5t69.5 -170.5q0 -51 -10 -92z" />
    <glyph glyph-name="t" unicode="t" horiz-adv-x="546" 
d="M492 1391l-64 -297h180l-26 -131h-181l-159 -746q-6 -27 -6 -43q0 -23 13.5 -33t47.5 -10h104l-28 -131h-170q-67 0 -99 19t-32 81q0 41 8 80l166 783h-152l27 131h151l64 297h156z" />
    <glyph glyph-name="u" unicode="u" horiz-adv-x="968" 
d="M262 1094h156l-180 -850q-7 -35 -7 -56q0 -45 26.5 -66.5t88.5 -21.5q97 0 179 68t116 223l150 703h155l-233 -1094h-156l31 143h-4q-57 -83 -136 -128.5t-159 -45.5q-104 0 -159.5 47.5t-55.5 143.5q0 35 10 90z" />
    <glyph glyph-name="v" unicode="v" horiz-adv-x="872" 
d="M141 1094h162l43 -963h4l453 963h162l-564 -1094h-168z" />
    <glyph glyph-name="w" unicode="w" horiz-adv-x="1312" 
d="M174 1094h137v-963h2l379 963h160l-18 -963h4l395 963h147l-479 -1094h-184l24 932h-4l-368 -932h-195v1094z" />
    <glyph glyph-name="x" unicode="x" horiz-adv-x="878" 
d="M156 1094h161l160 -418l326 418h162l-428 -531l204 -563h-159l-158 451l-361 -451h-159l454 563z" />
    <glyph glyph-name="y" unicode="y" horiz-adv-x="868" 
d="M147 1094h162l74 -873h4l426 873h162l-574 -1100q-24 -47 -39 -74t-38.5 -67.5t-41.5 -64t-44 -53t-51 -46t-56 -32.5t-67 -23t-76 -7q-52 0 -107 19l29 137q48 -25 110 -25q76 0 130.5 57.5t109.5 166.5z" />
    <glyph glyph-name="z" unicode="z" horiz-adv-x="794" 
d="M199 1094h647l-29 -129l-686 -834h514l-29 -131h-671l26 123l686 840h-487z" />
    <glyph glyph-name="braceleft" unicode="{" horiz-adv-x="538" 
d="M700 1475v-5q-108 -28 -155.5 -76.5t-65.5 -136.5l-78 -366q-22 -104 -74 -161.5t-173 -80.5v-4q83 -19 117 -58t34 -102q0 -48 -47 -263.5t-47 -252.5q0 -49 29.5 -86t101.5 -63l2 -4q-161 0 -223 34t-62 121q0 42 47.5 270t47.5 257q0 125 -140 147v4q96 6 150 63
t74 142l77 365q30 141 114 198.5t271 57.5z" />
    <glyph glyph-name="bar" unicode="|" horiz-adv-x="491" 
d="M25 0l315 1475h127l-315 -1475h-127z" />
    <glyph glyph-name="braceright" unicode="}" horiz-adv-x="540" 
d="M193 1470v5q157 0 221.5 -38.5t64.5 -133.5q0 -59 -46 -263t-46 -252q0 -124 139 -145l-2 -4q-97 -6 -148 -58t-71 -145l-78 -366q-30 -146 -115 -200t-272 -54v2q108 28 157 78t69 139l77 371q22 103 72.5 157t171.5 76l2 4q-84 19 -117.5 58.5t-33.5 103.5
q0 51 47 268.5t47 243.5q0 55 -32.5 92t-106.5 61z" />
    <glyph glyph-name="asciitilde" unicode="~" 
d="M117 328l-47 94q32 48 59 83t63 71.5t75.5 55.5t80.5 19q46 0 110.5 -33.5t123.5 -67.5t92 -34q90 0 194 162l50 -92q-143 -217 -277 -217q-35 0 -81 21t-83 46.5t-82 46.5t-78 21q-26 0 -49 -10t-44.5 -31t-35.5 -38.5t-36.5 -49.5t-34.5 -47z" />
    <glyph glyph-name="currency" unicode="&#xa4;" 
d="M-25 217l95 82q-37 84 -37 172q0 223 162 416l-60 84l115 104l57 -84q136 96 295 96q134 0 238 -96l96 84l70 -104l-91 -84q31 -88 31 -172q0 -232 -155 -416l55 -82l-115 -104l-59 84q-141 -99 -295 -99q-128 0 -238 99l-94 -84zM410 240q99 0 190 61.5t147 164
t56 216.5q0 113 -63.5 188.5t-168.5 75.5q-154 0 -273.5 -131.5t-119.5 -310.5q0 -114 64 -189t168 -75z" />
    <glyph glyph-name="brokenbar" unicode="&#xa6;" horiz-adv-x="491" 
d="M25 0l127 590h127l-127 -590h-127zM340 1475h127l-127 -590h-127z" />
    <glyph glyph-name="section" unicode="&#xa7;" 
d="M961 1128h-162q8 33 8 72q0 143 -154 143q-87 0 -150 -63.5t-63 -153.5q0 -43 41.5 -91.5t161.5 -135.5q82 -60 124.5 -94.5t81 -75.5t52.5 -78.5t14 -83.5q0 -67 -22.5 -125t-66.5 -106.5t-88 -83.5t-107 -76q92 -82 92 -190q0 -120 -63 -211.5t-165.5 -138
t-226.5 -46.5q-135 0 -206.5 72.5t-71.5 196.5q0 56 10 100h160q-8 -36 -8 -76q0 -162 170 -162q99 0 168 58.5t69 163.5q0 60 -55.5 120t-220.5 181q-114 84 -160.5 146.5t-46.5 133.5q0 131 80.5 225t212.5 152q-90 66 -90 186q0 86 36 160t95.5 123t135.5 77t156 28
q132 0 201.5 -64.5t69.5 -181.5q0 -49 -12 -101zM555 254q195 122 195 250q0 78 -99 162l-205 165q-112 -67 -158 -121.5t-46 -123.5q0 -23 4 -41t29 -52t71 -71z" />
    <glyph glyph-name="copyright" unicode="&#xa9;" horiz-adv-x="1572" 
d="M952 1505q137 0 254 -47t198 -128t127 -193.5t46 -241.5q0 -122 -38 -242t-104 -221.5t-158 -189t-196 -149t-221.5 -96t-232.5 -34.5q-276 0 -451.5 173t-175.5 439q0 181 82.5 353.5t215 298t306 202t348.5 76.5zM928 1391q-148 0 -294.5 -63.5t-259.5 -169
t-183 -253.5t-70 -305q0 -226 147 -374t381 -148q150 0 297.5 66t259.5 174.5t181 256.5t69 302q0 223 -147 368.5t-381 145.5zM1036 596h115q-43 -134 -163.5 -217.5t-258.5 -83.5q-161 0 -253.5 94t-92.5 246q0 135 65 260t188.5 208t274.5 83q141 0 222 -76.5t81 -216.5
h-114q0 91 -57 145t-150 54q-111 0 -202 -63.5t-140 -163.5t-49 -212q0 -116 63.5 -190t182.5 -74q95 0 176.5 56.5t111.5 150.5z" />
    <glyph glyph-name="guillemotleft" unicode="&#xab;" 
d="M182 674l361 301l-35 -164l-240 -201l154 -200l-35 -164l-231 307zM532 674l361 301l-35 -164l-240 -201l154 -200l-35 -164l-231 307z" />
    <glyph glyph-name="logicalnot" unicode="&#xac;" 
d="M141 569h813l-110 -524h-139l81 385h-673z" />
    <glyph glyph-name="registered" unicode="&#xae;" horiz-adv-x="1572" 
d="M952 1505q136 0 252.5 -46.5t197.5 -127t127 -193t46 -241.5q0 -122 -37.5 -242.5t-103 -222.5t-156.5 -189.5t-195 -149t-222 -96t-234 -34.5q-276 0 -451.5 173t-175.5 439q0 180 82 352.5t214.5 298.5t306 202.5t349.5 76.5zM928 1391q-119 0 -238.5 -40.5
t-221 -115.5t-180.5 -172t-124 -219t-45 -248q0 -226 147 -372t383 -146q150 0 297.5 65t259.5 172.5t181 255t69 303.5q0 224 -147 370.5t-381 146.5zM410 305l182 864h379q53 0 97 -8.5t83.5 -27t61.5 -54.5t22 -86q0 -75 -29.5 -133t-78 -91.5t-104.5 -50t-116 -16.5
l174 -397h-127l-159 397h-191l-84 -397h-110zM686 1087l-65 -303h253q36 0 73.5 7.5t80 26.5t69.5 60t27 99q0 63 -51.5 86.5t-142.5 23.5h-244z" />
    <glyph glyph-name="degree" unicode="&#xb0;" horiz-adv-x="786" 
d="M459 1475q105 0 171 -66.5t66 -167.5q0 -140 -113.5 -248t-250.5 -108q-105 0 -171.5 65.5t-66.5 165.5q0 98 53.5 182t137.5 130.5t174 46.5zM430 1352q-81 0 -146 -65.5t-65 -139.5q0 -56 36 -97.5t103 -41.5q76 0 144.5 61t68.5 148q0 52 -37 93.5t-104 41.5z" />
    <glyph glyph-name="plusminus" unicode="&#xb1;" 
d="M-2 186h813l-31 -139h-813zM541 1157h139l-72 -336h338l-31 -139h-337l-72 -338h-139l71 338h-338l31 139h338z" />
    <glyph glyph-name="mu" unicode="&#xb5;" horiz-adv-x="968" 
d="M225 6l-84 -387h-155l315 1475h156l-183 -850q-6 -30 -6 -54q0 -44 27 -66t90 -22q111 0 187.5 79t105.5 210l149 703h156l-233 -1094h-156l31 143h-4q-57 -82 -136 -127t-159 -45q-57 0 -101 35z" />
    <glyph glyph-name="mu" unicode="&#x3bc;" horiz-adv-x="968" 
d="M225 6l-84 -387h-155l315 1475h156l-183 -850q-6 -30 -6 -54q0 -44 27 -66t90 -22q111 0 187.5 79t105.5 210l149 703h156l-233 -1094h-156l31 143h-4q-57 -82 -136 -127t-159 -45q-57 0 -101 35z" />
    <glyph glyph-name="paragraph" unicode="&#xb6;" horiz-adv-x="864" 
d="M948 1473l-360 -1702h-156l334 1570h-148l-333 -1570h-156l201 948q-102 0 -171 82.5t-69 204.5q0 124 53 229t157 171.5t239 66.5h409z" />
    <glyph glyph-name="periodcentered" unicode="&#xb7;" horiz-adv-x="491" 
d="M178 598h178l-41 -197h-178z" />
    <glyph glyph-name="periodcentered" unicode="&#x2219;" horiz-adv-x="491" 
d="M178 598h178l-41 -197h-178z" />
    <glyph glyph-name="guillemotright" unicode="&#xbb;" 
d="M801 547l-361 -301l35 164l240 200l-154 201l35 164l231 -307zM451 547l-361 -301l35 164l240 200l-154 201l35 164l231 -307z" />
    <glyph glyph-name="afii10023" unicode="&#x401;" horiz-adv-x="991" 
d="M350 1475h740l-33 -148h-576l-100 -479h539l-33 -148h-539l-117 -553h578l-31 -147h-741zM668 1659h-156l43 196h156zM963 1659h-156l43 196h156z" />
    <glyph glyph-name="afii10051" unicode="&#x402;" horiz-adv-x="1368" 
d="M741 1327l-104 -498q97 19 205 19q91 0 160.5 -15t125 -49t84.5 -95t29 -148q0 -115 -36.5 -214t-105 -171.5t-173 -114t-232.5 -41.5h-98l33 147h57q91 0 160.5 23t110 59t66.5 85t35 94.5t9 95.5q0 48 -14 82.5t-38.5 56.5t-64.5 34.5t-85.5 17.5t-108.5 5
q-86 0 -152 -16l-145 -684h-164l283 1327h-383l32 148h928l-33 -148h-381z" />
    <glyph glyph-name="afii10052" unicode="&#x403;" horiz-adv-x="874" 
d="M352 1475h692l-30 -148h-529l-284 -1327h-164zM598 1610l289 348h254l-385 -348h-158z" />
    <glyph glyph-name="afii10053" unicode="&#x404;" horiz-adv-x="1101" 
d="M1098 1032h-164q14 63 14 125q0 199 -209 199q-64 0 -121.5 -32.5t-100 -84t-78.5 -120t-58.5 -135.5t-36.5 -136h389l-31 -148h-389q-34 -162 -34 -290q0 -297 196 -297q77 0 137 31t101 90.5t67.5 131t46.5 166.5h164q-31 -135 -74 -235.5t-106.5 -177t-152.5 -115.5
t-203 -39q-351 0 -351 412q0 149 50 379q16 74 36 143t50.5 145.5t66 141t84.5 124.5t104.5 101.5t127 66.5t151.5 25q162 0 251 -85.5t89 -243.5q0 -60 -16 -142z" />
    <glyph glyph-name="afii10054" unicode="&#x405;" horiz-adv-x="1093" 
d="M84 467h164q-19 -101 -19 -145q0 -103 52.5 -156t171.5 -53q151 0 247.5 84.5t96.5 248.5q0 82 -45 124t-144 83l-200 82q-170 71 -170 262q0 221 141.5 363.5t355.5 142.5q166 0 254 -79.5t88 -231.5q0 -43 -10 -105h-164q10 52 10 84q0 87 -49.5 136t-146.5 49
q-80 0 -141 -28.5t-95.5 -76.5t-51.5 -104.5t-17 -118.5q0 -53 22 -84.5t70 -50.5l215 -88q252 -103 252 -322q0 -123 -44.5 -223t-121 -163.5t-176.5 -97.5t-213 -34q-171 0 -260.5 88t-89.5 252q0 73 18 162z" />
    <glyph glyph-name="afii10055" unicode="&#x406;" horiz-adv-x="471" 
d="M516 1475l-315 -1475h-164l315 1475h164z" />
    <glyph glyph-name="afii10056" unicode="&#x407;" horiz-adv-x="471" 
d="M516 1475l-315 -1475h-164l315 1475h164zM403 1659h-155l43 196h155zM698 1659h-155l43 196h155z" />
    <glyph glyph-name="afii10057" unicode="&#x408;" horiz-adv-x="886" 
d="M768 1475h164l-236 -1117q-45 -212 -152.5 -302.5t-273.5 -90.5q-143 0 -207.5 61t-64.5 181q0 79 39 250h164q-39 -175 -39 -221q0 -59 30.5 -91t104.5 -32q60 0 102.5 20t68 59.5t39 78.5t25.5 96z" />
    <glyph glyph-name="afii10058" unicode="&#x409;" horiz-adv-x="1855" 
d="M457 1475h823l-133 -627h194q90 0 159 -14.5t125 -47.5t86 -92.5t30 -144.5q0 -136 -43.5 -243t-119.5 -173t-173.5 -99.5t-210.5 -33.5h-391l280 1327h-495l-123 -584q-23 -105 -38.5 -168.5t-45 -166t-62.5 -166.5t-77.5 -130t-103.5 -98t-128 -32q-49 0 -96 12l31 145
q25 -10 61 -10q32 0 60 15t51 40.5t45 73t39.5 97.5t38.5 131t38 156.5t41 188.5zM1116 700l-117 -553h187q177 0 279 89t102 272q0 110 -76.5 151t-235.5 41h-139z" />
    <glyph glyph-name="afii10059" unicode="&#x40a;" horiz-adv-x="1818" 
d="M516 1475l-135 -627h563l135 627h164l-135 -627h195q90 0 159 -14.5t125 -47.5t85.5 -92.5t29.5 -144.5q0 -136 -43.5 -243t-119.5 -173t-173.5 -99.5t-210.5 -33.5h-391l149 700h-563l-149 -700h-164l315 1475h164zM1077 700l-116 -553h186q177 0 279 89t102 272
q0 111 -76.5 151.5t-234.5 40.5h-140z" />
    <glyph glyph-name="afii10060" unicode="&#x40b;" horiz-adv-x="1368" 
d="M741 1327l-104 -498q97 19 205 19q399 0 399 -291q0 -67 -14 -141l-90 -416h-164l88 408q10 52 10 94q0 109 -78.5 153.5t-236.5 44.5q-86 0 -152 -16l-145 -684h-164l283 1327h-383l32 148h928l-33 -148h-381z" />
    <glyph glyph-name="afii10061" unicode="&#x40c;" horiz-adv-x="1103" 
d="M516 1475l-160 -758l699 758h205l-603 -617l301 -858h-190l-238 729l-217 -215l-112 -514h-164l315 1475h164zM676 1610l289 348h254l-385 -348h-158z" />
    <glyph glyph-name="afii10062" unicode="&#x40e;" horiz-adv-x="1034" 
d="M219 1475h174l125 -1024l535 1024h172l-668 -1231q-86 -157 -163 -218t-171 -61q-83 0 -121 19l31 147q32 -18 105 -18q45 0 79.5 29t75.5 110zM526 1817h84q0 -142 158 -142q78 0 130 32.5t85 109.5h84q-27 -126 -116 -189t-214 -63q-97 0 -158 47.5t-61 138.5
q0 16 8 66z" />
    <glyph glyph-name="afii10145" unicode="&#x40f;" horiz-adv-x="1196" 
d="M516 1475l-280 -1328h561l282 1328h164l-315 -1475h-367l-72 -344h-155l72 344h-369l315 1475h164z" />
    <glyph glyph-name="afii10017" unicode="&#x410;" horiz-adv-x="1112" 
d="M-86 0l735 1475h217l99 -1475h-181l-26 424h-465l-199 -424h-180zM754 571l-25 785h-4l-360 -785h389z" />
    <glyph glyph-name="afii10018" unicode="&#x411;" horiz-adv-x="1091" 
d="M350 700l-117 -553h187q177 0 279 89t102 272q0 110 -76.5 151t-235.5 41h-139zM352 1475h733l-32 -148h-570l-102 -479h194q90 0 159 -14.5t125 -47.5t86 -92.5t30 -144.5q0 -136 -43.5 -243t-119.5 -173t-173.5 -99.5t-210.5 -33.5h-391z" />
    <glyph glyph-name="afii10019" unicode="&#x412;" horiz-adv-x="1091" 
d="M483 1327l-102 -479h203q67 0 122.5 17t100 54t69.5 101t25 151q0 156 -199 156h-219zM350 700l-117 -553h244q147 0 235.5 95t88.5 274q0 184 -221 184h-230zM37 0l315 1475h387q169 0 252.5 -71t83.5 -198q0 -151 -82 -272t-211 -150l-2 -4q86 -11 138.5 -80t52.5 -176
q0 -121 -41.5 -221t-113 -166t-167.5 -101.5t-205 -35.5h-407z" />
    <glyph glyph-name="afii10020" unicode="&#x413;" horiz-adv-x="874" 
d="M352 1475h692l-32 -148h-529l-282 -1327h-164z" />
    <glyph glyph-name="afii10021" unicode="&#x414;" horiz-adv-x="1239" 
d="M502 1475h782l-280 -1328h116l-104 -491h-156l72 344h-842l-72 -344h-155l104 491h99q70 89 122 185.5t93.5 219t72 243t68.5 303.5zM1090 1327h-455l-82 -383q-108 -508 -311 -797h598z" />
    <glyph glyph-name="afii10022" unicode="&#x415;" horiz-adv-x="991" 
d="M352 1475h740l-33 -148h-576l-102 -479h539l-31 -148h-539l-117 -553h578l-33 -147h-741z" />
    <glyph glyph-name="afii10024" unicode="&#x416;" horiz-adv-x="1736" 
d="M985 1475h164l-162 -758l699 758h204l-602 -617l301 -858h-190l-238 729l-217 -215l-110 -514h-164l110 514l-127 215l-549 -729h-190l670 858l-340 617h205l374 -758z" />
    <glyph glyph-name="afii10025" unicode="&#x417;" horiz-adv-x="1116" 
d="M397 1085h-164q65 195 202.5 305.5t324.5 110.5q149 0 235 -78t86 -206q0 -151 -91.5 -271.5t-213.5 -159.5q100 -21 155.5 -92.5t55.5 -185.5q0 -39 -7 -83.5t-25 -98t-45.5 -103.5t-72 -97.5t-100 -82.5t-134.5 -56.5t-171 -21.5q-193 0 -277.5 89.5t-84.5 258.5
q0 69 12 146h164q-13 -73 -13 -125q0 -110 55 -165.5t181 -55.5q87 0 156 34.5t109.5 89.5t61.5 118t21 126q0 93 -56 156t-157 63h-139l31 148h108q80 0 151 50t111.5 126t40.5 154q0 86 -50.5 131t-145.5 45q-103 0 -189.5 -73.5t-124.5 -195.5z" />
    <glyph glyph-name="afii10026" unicode="&#x418;" horiz-adv-x="1226" 
d="M516 1475l-295 -1369h4q4 8 38.5 81t64.5 122l706 1166h238l-316 -1475h-163l303 1401h-4q-59 -157 -109 -240l-709 -1161h-237l315 1475h164z" />
    <glyph glyph-name="afii10027" unicode="&#x419;" horiz-adv-x="1226" 
d="M516 1475l-295 -1369h4q4 8 38.5 81t64.5 122l706 1166h238l-316 -1475h-163l303 1401h-4q-59 -157 -109 -240l-709 -1161h-237l315 1475h164zM600 1817h84q0 -71 42.5 -106.5t117.5 -35.5q78 0 129 32.5t84 109.5h84q-27 -126 -116 -189t-214 -63q-97 0 -158 47.5
t-61 138.5q0 16 8 66z" />
    <glyph glyph-name="afii10028" unicode="&#x41a;" horiz-adv-x="1103" 
d="M516 1475l-162 -758l699 758h204l-602 -617l301 -858h-190l-238 729l-217 -215l-110 -514h-164l315 1475h164z" />
    <glyph glyph-name="afii10029" unicode="&#x41b;" horiz-adv-x="1234" 
d="M457 1475h825l-315 -1475h-164l280 1327h-495l-123 -584q-14 -66 -24 -112.5t-27.5 -114.5t-33 -116t-38.5 -107.5t-46.5 -101t-55 -84t-65.5 -68t-76 -41.5t-89 -16q-49 0 -96 12l31 145q25 -10 61 -10q32 0 60 15t51 40.5t45 73t39.5 97.5t38.5 131t38 156.5t41 188.5z
" />
    <glyph glyph-name="afii10030" unicode="&#x41c;" horiz-adv-x="1538" 
d="M352 1475h289q43 -1129 43 -1186q0 -51 -14 -183h4q53 161 82 220l538 1149h289l-315 -1475h-164l305 1401h-6q-58 -127 -92 -197l-566 -1204h-194l-49 1221q-4 122 -4 180h-4q-8 -80 -35 -191l-258 -1210h-164z" />
    <glyph glyph-name="afii10031" unicode="&#x41d;" horiz-adv-x="1198" 
d="M516 1475l-135 -627h563l135 627h164l-315 -1475h-164l149 700h-563l-149 -700h-164l315 1475h164z" />
    <glyph glyph-name="afii10032" unicode="&#x41e;" horiz-adv-x="1198" 
d="M803 1503q368 0 368 -418q0 -152 -43 -346q-21 -96 -41.5 -172t-51 -159t-66 -145.5t-85 -120.5t-107.5 -95.5t-135 -59.5t-167 -22q-104 0 -177.5 28t-115 82t-60 122t-18.5 157q0 139 52 385q17 81 36 149.5t49 149t64.5 144.5t85 126t109 103.5t136.5 66.5t167 25z
M768 1356q-74 0 -135.5 -30.5t-107 -81.5t-83 -128.5t-63.5 -161t-49 -188.5q-51 -244 -51 -387q0 -135 52.5 -200.5t176.5 -65.5q80 0 142.5 28t108 77.5t83.5 133.5t65 179.5t56 232.5q34 164 34 301q0 140 -52.5 215.5t-176.5 75.5z" />
    <glyph glyph-name="afii10033" unicode="&#x41f;" horiz-adv-x="1198" 
d="M352 1475h891l-315 -1475h-164l283 1327h-564l-282 -1327h-164z" />
    <glyph glyph-name="afii10034" unicode="&#x420;" horiz-adv-x="1120" 
d="M483 1327l-116 -555h159q142 0 210 21.5t116 66.5q40 39 72 121.5t32 163.5q0 100 -67 141t-199 41h-207zM334 625l-133 -625h-164l315 1475h410q176 0 272 -72.5t96 -220.5q0 -35 -4 -73.5t-19 -95.5t-38.5 -107.5t-68.5 -103.5t-104 -91t-148.5 -62t-198.5 -24h-215z
" />
    <glyph glyph-name="afii10035" unicode="&#x421;" horiz-adv-x="1101" 
d="M1100 1032h-164q14 60 14 121q0 203 -209 203q-59 0 -110.5 -24t-88.5 -58.5t-70.5 -91.5t-53.5 -104t-40 -116t-29 -106.5t-21 -95.5q-49 -230 -49 -379q0 -61 9.5 -107.5t31 -84t61 -57t96.5 -19.5q62 0 112 21.5t84 55t64 91t49.5 113t42.5 138.5h164
q-36 -136 -78.5 -233.5t-105 -176t-150.5 -118t-202 -39.5q-353 0 -353 400q0 146 52 391q17 78 36 146.5t48.5 146.5t64 141t83.5 123t105 100.5t129.5 65t157.5 24.5q166 0 250 -91t84 -245q0 -69 -14 -135z" />
    <glyph glyph-name="afii10036" unicode="&#x422;" horiz-adv-x="985" 
d="M741 1327l-282 -1327h-164l283 1327h-383l32 148h928l-33 -148h-381z" />
    <glyph glyph-name="afii10037" unicode="&#x423;" horiz-adv-x="1034" 
d="M217 1475h174l127 -1024l533 1024h172l-666 -1231q-86 -157 -163 -218t-171 -61q-83 0 -121 19l31 147q32 -18 105 -18q45 0 79.5 29t75.5 110z" />
    <glyph glyph-name="afii10038" unicode="&#x424;" horiz-adv-x="1513" 
d="M874 1475h164l-32 -152h41q87 0 162 -24t135.5 -72t95.5 -128.5t35 -185.5q0 -110 -29 -217t-86.5 -200.5t-137.5 -164.5t-188.5 -112t-232.5 -41h-39l-39 -178h-164l39 178h-41q-91 0 -167 24t-134.5 72.5t-91.5 127.5t-33 182q0 207 88 376.5t241 266t339 96.5h43z
M973 1176l-180 -850h43q137 0 244.5 79t163.5 206.5t56 277.5q0 142 -77.5 214.5t-208.5 72.5h-41zM629 326l180 850h-41q-90 0 -167 -33t-130.5 -88t-91.5 -127t-56 -150t-18 -157q0 -144 75.5 -219.5t205.5 -75.5h43z" />
    <glyph glyph-name="afii10039" unicode="&#x425;" horiz-adv-x="1083" 
d="M250 1475h182l186 -576l433 576h182l-549 -717l242 -758h-187l-182 616l-451 -616h-182l570 758z" />
    <glyph glyph-name="afii10040" unicode="&#x426;" horiz-adv-x="1204" 
d="M516 1475l-280 -1328h563l284 1328h164l-284 -1328h118l-104 -491h-156l72 344h-856l315 1475h164z" />
    <glyph glyph-name="afii10041" unicode="&#x427;" horiz-adv-x="1138" 
d="M342 1475h164q-64 -289 -79 -368t-15 -118q0 -80 51 -110.5t178 -30.5q154 0 248 16l131 611h164l-316 -1475h-163l153 719q-117 -19 -280 -19q-167 0 -251.5 58t-84.5 194q0 41 18 136.5t82 386.5z" />
    <glyph glyph-name="afii10042" unicode="&#x428;" horiz-adv-x="1716" 
d="M516 1475l-283 -1328h459l283 1328h164l-283 -1328h459l282 1328h164l-315 -1475h-1409l315 1475h164z" />
    <glyph glyph-name="afii10043" unicode="&#x429;" horiz-adv-x="1722" 
d="M516 1475l-283 -1328h459l283 1328h164l-283 -1328h459l282 1328h164l-284 -1328h122l-104 -491h-156l72 344h-1374l315 1475h164z" />
    <glyph glyph-name="afii10044" unicode="&#x42a;" horiz-adv-x="1228" 
d="M487 700l-116 -553h186q177 0 279 89t102 272q0 111 -76.5 151.5t-234.5 40.5h-140zM653 1475l-135 -627h195q90 0 159 -14.5t125 -47.5t85.5 -92.5t29.5 -144.5q0 -136 -43.5 -243t-119.5 -173t-173.5 -99.5t-210.5 -33.5h-391l283 1327h-301l32 148h465z" />
    <glyph glyph-name="afii10045" unicode="&#x42b;" horiz-adv-x="1529" 
d="M350 700l-117 -553h187q177 0 279 89t102 272q0 110 -76.5 151t-235.5 41h-139zM516 1475l-135 -627h194q90 0 159 -14.5t125 -47.5t86 -92.5t30 -144.5q0 -136 -43.5 -243t-119.5 -173t-173.5 -99.5t-210.5 -33.5h-391l315 1475h164zM1575 1475l-315 -1475h-164
l315 1475h164z" />
    <glyph glyph-name="afii10046" unicode="&#x42c;" horiz-adv-x="1091" 
d="M350 700l-117 -553h187q177 0 279 89t102 272q0 110 -76.5 151t-235.5 41h-139zM516 1475l-135 -627h194q90 0 159 -14.5t125 -47.5t86 -92.5t30 -144.5q0 -136 -43.5 -243t-119.5 -173t-173.5 -99.5t-210.5 -33.5h-391l315 1475h164z" />
    <glyph glyph-name="afii10047" unicode="&#x42d;" horiz-adv-x="1095" 
d="M203 1032q57 218 196 344.5t336 126.5q336 0 336 -401q0 -152 -43 -346q-18 -87 -34.5 -152.5t-45 -153t-59.5 -150.5t-79 -130t-103 -109t-131 -69t-164 -27q-340 0 -340 348q0 89 26 219h162q-20 -120 -20 -194q0 -110 44.5 -167.5t151.5 -57.5q61 0 112.5 21t91 62.5
t70.5 92t57 121t44 137.5t37 153h-389l30 148h390q28 144 28 235q0 273 -207 273q-132 0 -211 -87t-122 -237h-164z" />
    <glyph glyph-name="afii10048" unicode="&#x42e;" horiz-adv-x="1656" 
d="M516 1475l-133 -627h256q21 100 52.5 188.5t84 176.5t119 150.5t161.5 101t208 38.5q366 0 366 -416q0 -154 -43 -348q-21 -96 -41.5 -172t-51 -159t-65.5 -145.5t-84 -121t-107 -95.5t-135 -59t-167 -22q-104 0 -178 28t-116 82t-60.5 122t-18.5 157q0 141 45 346h-256
l-151 -700h-164l315 1475h164zM1227 1356q-74 0 -135.5 -30.5t-107 -81.5t-83.5 -128.5t-64 -161t-49 -188.5q-51 -244 -51 -387q0 -135 53 -200.5t177 -65.5q80 0 142.5 28t108 77.5t83 133.5t64.5 179.5t56 232.5q35 169 35 301q0 140 -52.5 215.5t-176.5 75.5z" />
    <glyph glyph-name="afii10049" unicode="&#x42f;" horiz-adv-x="1089" 
d="M821 774l117 553h-186q-95 0 -166.5 -26.5t-111 -64.5t-63.5 -90t-31 -94t-7 -85q0 -57 20.5 -95.5t62.5 -59.5t95.5 -29.5t130.5 -8.5h139zM655 0l136 627h-213l-457 -627h-182l471 647q-102 35 -156.5 101t-54.5 180t33.5 211.5t99 173t171.5 119t242 43.5h390
l-316 -1475h-164z" />
    <glyph glyph-name="afii10065" unicode="&#x430;" horiz-adv-x="888" 
d="M600 596q-38 -19 -90 -41t-89 -36.5t-79 -37t-70 -47.5t-51.5 -64.5t-34.5 -90.5q-8 -32 -8 -56q0 -112 119 -112q199 0 248 221zM317 799h-139q70 323 385 323q131 0 192.5 -57.5t61.5 -151.5q0 -29 -8 -69l-137 -645q-4 -20 -4 -35q0 -53 45 -53q19 0 35 4l-25 -115
q-20 -12 -66 -12q-43 0 -65 4t-40 20.5t-24 48t-6 86.5h-2q-44 -73 -123.5 -124.5t-156.5 -51.5q-226 0 -226 197q0 96 22.5 167t70.5 122t109.5 86t152.5 67q132 47 211 82q37 17 55 78.5t18 120.5q0 54 -31 77t-104 23q-86 0 -133 -47t-68 -145z" />
    <glyph glyph-name="afii10066" unicode="&#x431;" horiz-adv-x="987" 
d="M291 897q132 170 299 170q134 0 206 -86.5t72 -245.5q0 -88 -20 -188q-62 -291 -187.5 -433.5t-326.5 -142.5q-153 0 -223 81.5t-70 248.5q0 131 41 324q49 232 124.5 387t168.5 233.5t215 108.5q86 21 129.5 33.5t86.5 35.5t56 52h127q-44 -102 -130 -154t-230 -82
q-121 -26 -208.5 -114t-129.5 -228zM362 102q121 0 199 111t125 334q19 90 19 160q0 106 -41 167.5t-125 61.5q-112 0 -193 -105.5t-119 -283.5q-28 -140 -28 -230q0 -215 163 -215z" />
    <glyph glyph-name="afii10067" unicode="&#x432;" horiz-adv-x="921" 
d="M387 963l-68 -322h164q98 0 155.5 53.5t57.5 161.5q0 107 -139 107h-170zM291 510l-80 -379h182q113 0 170.5 64t57.5 186q0 129 -150 129h-180zM27 0l233 1094h354q109 0 177.5 -55.5t68.5 -149.5q0 -103 -69.5 -199.5t-161.5 -116.5l-2 -4q70 -18 108.5 -66.5
t38.5 -125.5q0 -83 -30.5 -155t-79 -120t-109.5 -75t-123 -27h-405z" />
    <glyph glyph-name="afii10068" unicode="&#x433;" horiz-adv-x="749" 
d="M260 1094h578l-29 -131h-422l-205 -963h-155z" />
    <glyph glyph-name="afii10069" unicode="&#x434;" horiz-adv-x="1007" 
d="M51 131q110 157 162.5 278t95.5 324l76 361h598l-205 -963h105l-90 -428h-144l64 297h-639l-64 -297h-143l90 428h94zM623 131l178 832h-293l-68 -314q-34 -160 -83 -268t-146 -250h412z" />
    <glyph glyph-name="afii10070" unicode="&#x435;" horiz-adv-x="897" 
d="M285 641h368q23 117 23 182q0 168 -127 168q-49 0 -90.5 -23.5t-68 -57t-48.5 -84.5t-34 -92t-23 -93zM600 365h156q-36 -172 -143.5 -283t-270.5 -111q-135 0 -203.5 70t-68.5 233q0 123 32 275q123 573 473 573q138 0 195 -79t57 -218q0 -126 -41 -315h-530
q-37 -181 -37 -248q0 -79 34 -119.5t114 -40.5q176 0 233 263z" />
    <glyph glyph-name="afii10072" unicode="&#x436;" horiz-adv-x="1343" 
d="M711 1094h155l-108 -510l487 510h185l-429 -426l205 -668h-182l-156 545l-151 -156l-84 -389h-156l84 389l-86 156l-389 -545h-182l491 668l-248 426h185l270 -510z" />
    <glyph glyph-name="afii10073" unicode="&#x437;" horiz-adv-x="866" 
d="M330 510l28 131h84q77 0 138 64t61 161q0 56 -33.5 90.5t-105.5 34.5q-89 0 -147 -52.5t-81 -137.5h-143q35 134 147 227.5t257 93.5q122 0 196 -61.5t74 -159.5q0 -106 -72 -200t-186 -121v-5q72 -15 122 -68t50 -142q0 -162 -122 -278t-302 -116q-146 0 -215.5 66
t-69.5 203q0 52 8 104h144q-6 -44 -6 -78q0 -91 38 -127.5t119 -36.5q115 0 181.5 73t66.5 187q0 68 -37.5 108t-107.5 40h-86z" />
    <glyph glyph-name="afii10074" unicode="&#x438;" horiz-adv-x="1011" 
d="M797 1094h188l-233 -1094h-156l176 829q4 16 45 136h-2q-9 -28 -30.5 -76t-30.5 -60l-539 -829h-188l233 1094h156l-178 -832q-11 -52 -43 -131h2q34 86 59 131z" />
    <glyph glyph-name="afii10075" unicode="&#x439;" horiz-adv-x="1011" 
d="M797 1094h188l-233 -1094h-156l176 829q4 16 45 136h-2q-9 -28 -30.5 -76t-30.5 -60l-539 -829h-188l233 1094h156l-178 -832q-11 -52 -43 -131h2q34 86 59 131zM453 1448h79q0 -137 142 -137q70 0 117 31.5t77 105.5h82q-31 -123 -112.5 -183.5t-194.5 -60.5
q-89 0 -141.5 47t-52.5 140q0 25 4 57z" />
    <glyph glyph-name="afii10076" unicode="&#x43a;" horiz-adv-x="901" 
d="M416 1094l-109 -510l488 510h184l-428 -426l205 -668h-183l-155 545l-152 -156l-84 -389h-155l233 1094h156z" />
    <glyph glyph-name="afii10077" unicode="&#x43b;" horiz-adv-x="993" 
d="M322 1094h647l-234 -1094h-155l204 963h-340l-92 -435q-22 -101 -44 -177.5t-52.5 -147t-66 -115.5t-83.5 -71.5t-106 -26.5q-56 0 -92 14l26 123q30 -6 66 -6q44 0 74.5 31.5t61.5 122t69 266.5z" />
    <glyph glyph-name="afii10078" unicode="&#x43c;" horiz-adv-x="1245" 
d="M260 1094h242q47 -750 47 -762q0 -38 -10 -180h2q7 18 37 102.5t47 118.5l352 721h242l-234 -1094h-149l204 963h-2l-481 -963h-104l-70 963h-2l-205 -963h-149z" />
    <glyph glyph-name="afii10079" unicode="&#x43d;" horiz-adv-x="985" 
d="M416 1094l-97 -453h388l96 453h155l-233 -1094h-156l109 510h-387l-109 -510h-155l233 1094h156z" />
    <glyph glyph-name="afii10080" unicode="&#x43e;" horiz-adv-x="987" 
d="M616 1122q299 0 299 -331q0 -92 -30 -242q-35 -164 -85.5 -278t-117.5 -179t-142 -93t-169 -28q-146 0 -223.5 74t-77.5 248q0 98 32 258q122 571 514 571zM588 991q-125 0 -199.5 -104t-126.5 -352q-29 -135 -29 -224q0 -209 166 -209q67 0 119.5 30.5t90.5 90.5
t64 134.5t48 177.5q31 140 31 253q0 107 -39.5 155t-124.5 48z" />
    <glyph glyph-name="afii10081" unicode="&#x43f;" horiz-adv-x="985" 
d="M260 1094h698l-233 -1094h-156l205 963h-387l-205 -963h-155z" />
    <glyph glyph-name="afii10082" unicode="&#x440;" horiz-adv-x="985" 
d="M606 991q-77 0 -139.5 -62.5t-97.5 -150.5t-59 -192t-32 -177t-8 -116q0 -191 150 -191q78 0 140.5 61t98 146.5t59.5 186.5t32 171t8 109q0 215 -152 215zM422 1094l-27 -123h2q51 72 122.5 111.5t133.5 39.5q269 0 269 -315q0 -103 -29 -242q-28 -132 -66 -234
t-93.5 -186t-135 -129t-178.5 -45q-79 0 -126.5 35.5t-80.5 106.5l-107 -494h-155l315 1475h156z" />
    <glyph glyph-name="afii10083" unicode="&#x441;" horiz-adv-x="888" 
d="M573 991q-67 0 -119.5 -38t-89 -108.5t-59.5 -143.5t-43 -169q-33 -153 -33 -237q0 -193 150 -193q41 0 74.5 10.5t58 33t42.5 45.5t33 59.5t24 63t20 67.5h147q-18 -82 -51 -152.5t-83 -129.5t-123 -93.5t-161 -34.5q-160 0 -227 80t-67 221q0 98 34 260
q125 590 504 590q130 0 197 -72.5t67 -193.5q0 -48 -12 -104h-147q10 52 10 88q0 151 -146 151z" />
    <glyph glyph-name="afii10084" unicode="&#x442;" horiz-adv-x="784" 
d="M145 1094h727l-28 -131h-285l-205 -963h-155l204 963h-286z" />
    <glyph glyph-name="afii10085" unicode="&#x443;" horiz-adv-x="868" 
d="M147 1094h162l74 -873h4l426 873h162l-574 -1100q-24 -47 -39 -74t-38.5 -67.5t-41.5 -64t-44 -53t-51 -46t-56 -32.5t-67 -23t-76 -7q-52 0 -107 19l29 137q48 -25 110 -25q76 0 130.5 57.5t109.5 166.5z" />
    <glyph glyph-name="afii10086" unicode="&#x444;" horiz-adv-x="1527" 
d="M883 1475h155l-106 -504q51 74 118 112.5t136 38.5q272 0 272 -321q0 -106 -28 -234q-129 -596 -480 -596q-78 0 -122 35.5t-78 108.5l-105 -488h-156l105 488q-64 -72 -125 -108t-139 -36q-264 0 -264 305q0 114 40 291q25 118 63 213.5t94.5 175t137.5 123t181 43.5
q69 0 121 -37.5t73 -111.5zM565 991q-77 0 -139.5 -62.5t-97.5 -150.5t-59 -192t-32 -177t-8 -116q0 -191 150 -191q78 0 140.5 61t98 146.5t59.5 186.5t32 171t8 109q0 215 -152 215zM1143 991q-77 0 -139.5 -62.5t-97.5 -150.5t-59 -192t-32 -177t-8 -116q0 -91 34 -141
t115 -50q78 0 140.5 61t98 146.5t59.5 186.5t32 171t8 109q0 215 -151 215z" />
    <glyph glyph-name="afii10087" unicode="&#x445;" horiz-adv-x="878" 
d="M156 1094h161l160 -418l326 418h162l-428 -531l204 -563h-159l-158 451l-361 -451h-159l454 563z" />
    <glyph glyph-name="afii10088" unicode="&#x446;" horiz-adv-x="989" 
d="M416 1094l-205 -963h387l205 963h155l-204 -963h106l-90 -428h-143l63 297h-663l233 1094h156z" />
    <glyph glyph-name="afii10089" unicode="&#x447;" horiz-adv-x="911" 
d="M219 1094h156l-66 -310q-8 -33 -8 -65q0 -51 32.5 -74.5t110.5 -23.5q90 0 187 10l98 463h156l-234 -1094h-155l108 510q-100 -21 -242 -21q-113 0 -167 56.5t-54 148.5q0 36 9 76z" />
    <glyph glyph-name="afii10090" unicode="&#x448;" horiz-adv-x="1466" 
d="M416 1094l-205 -963h356l205 963h156l-205 -963h356l205 963h156l-234 -1094h-1179l233 1094h156z" />
    <glyph glyph-name="afii10091" unicode="&#x449;" horiz-adv-x="1470" 
d="M416 1094l-205 -963h356l205 963h156l-205 -963h356l205 963h156l-205 -963h106l-90 -428h-143l63 297h-1144l233 1094h156z" />
    <glyph glyph-name="afii10092" unicode="&#x44a;" 
d="M350 510l-80 -379h164q120 0 181 66t61 188q0 125 -152 125h-174zM104 1094h371l-96 -453h219q113 0 177.5 -68.5t64.5 -179.5q0 -170 -110.5 -281.5t-268.5 -111.5h-375l205 963h-215z" />
    <glyph glyph-name="afii10093" unicode="&#x44b;" horiz-adv-x="1298" 
d="M291 510l-80 -379h164q120 0 180.5 66t60.5 188q0 62 -36 93.5t-115 31.5h-174zM416 1094l-97 -453h220q113 0 177 -68.5t64 -179.5q0 -170 -110.5 -281.5t-268.5 -111.5h-374l233 1094h156zM1272 1094l-234 -1094h-155l233 1094h156z" />
    <glyph glyph-name="afii10094" unicode="&#x44c;" horiz-adv-x="923" 
d="M291 510l-80 -379h164q120 0 180.5 66t60.5 188q0 62 -36 93.5t-115 31.5h-174zM416 1094l-97 -453h220q113 0 177 -68.5t64 -179.5q0 -170 -110.5 -281.5t-268.5 -111.5h-374l233 1094h156z" />
    <glyph glyph-name="afii10095" unicode="&#x44d;" horiz-adv-x="897" 
d="M377 641h276q17 87 17 152q0 198 -144 198q-102 0 -165.5 -69t-86.5 -170h-147q33 157 150.5 263.5t277.5 106.5q270 0 270 -321q0 -110 -32 -266q-20 -93 -44.5 -168.5t-64.5 -151.5t-89.5 -127.5t-122 -84t-159.5 -32.5q-143 0 -211.5 69.5t-68.5 197.5q0 61 16 143
h148q-13 -73 -13 -121q0 -77 34.5 -117.5t119.5 -40.5q51 0 93 22.5t70.5 57.5t53 91t39.5 110t31 127h-277z" />
    <glyph glyph-name="afii10096" unicode="&#x44e;" horiz-adv-x="1374" 
d="M416 1094l-97 -453h189q47 221 177 351t316 130q299 0 299 -331q0 -112 -20 -207q-37 -174 -89.5 -295t-120 -189.5t-143.5 -98.5t-171 -30q-301 0 -301 324q0 106 24 215h-188l-109 -510h-155l233 1094h156zM973 991q-125 0 -199.5 -104t-126.5 -352q-29 -135 -29 -224
q0 -209 166 -209q67 0 119.5 30.5t90.5 90.5t64 134.5t48 177.5q31 140 31 253q0 107 -39.5 155t-124.5 48z" />
    <glyph glyph-name="afii10097" unicode="&#x44f;" horiz-adv-x="925" 
d="M637 592l78 371h-170q-118 0 -174 -62q-32 -35 -48 -88.5t-16 -99.5q0 -121 154 -121h176zM608 461h-168l-321 -461h-170l336 477q-68 27 -105 87.5t-37 140.5q0 166 113 277.5t266 111.5h377l-233 -1094h-156z" />
    <glyph glyph-name="afii10071" unicode="&#x451;" horiz-adv-x="897" 
d="M285 641h368q25 109 25 184q0 166 -127 166q-49 0 -90.5 -23.5t-68 -57t-49 -84.5t-34.5 -92t-24 -93zM602 365h156q-38 -173 -144.5 -283.5t-269.5 -110.5q-135 0 -204.5 70.5t-69.5 232.5q0 114 34 275q19 89 43 165.5t64 154t89.5 131.5t120 88t154.5 34
q138 0 196 -80.5t58 -220.5q0 -126 -41 -311h-530q-37 -181 -37 -248q0 -79 34 -119.5t114 -40.5q176 0 233 263zM553 1278h-156l43 197h156zM848 1278h-156l43 197h156z" />
    <glyph glyph-name="afii10099" unicode="&#x452;" horiz-adv-x="985" 
d="M340 1475h156l-27 -119h279l-25 -115h-279l-57 -268h2q136 149 301 149q203 0 203 -239q0 -77 -78 -451q-37 -171 -71.5 -293.5t-75.5 -211t-81.5 -143.5t-97 -88.5t-113 -48t-138.5 -20.5l28 131q57 5 98 21.5t78 55t65 91.5t58 145.5t56 201t61 272.5q53 251 53 307
q0 72 -28 105.5t-93 33.5q-98 0 -175 -67.5t-99 -167.5l-160 -756h-155l264 1241h-139l24 115h139z" />
    <glyph glyph-name="afii10100" unicode="&#x453;" horiz-adv-x="749" 
d="M258 1094h578l-27 -131h-422l-207 -963h-155zM453 1227l233 276h215l-317 -276h-131z" />
    <glyph glyph-name="afii10101" unicode="&#x454;" horiz-adv-x="888" 
d="M856 752h-147q10 52 10 90q0 149 -146 149q-74 0 -135.5 -54t-97.5 -130t-55 -166h276l-29 -131h-276q-27 -127 -27 -209q0 -199 150 -199q41 0 74.5 10.5t58 33t42.5 45.5t33 59.5t24 63t20 67.5h147q-18 -82 -51 -152.5t-83 -129.5t-123 -93.5t-161 -34.5
q-160 0 -227 80t-67 221q0 101 34 260q13 63 27.5 117.5t37.5 116.5t50.5 111.5t66.5 96.5t84.5 78.5t106.5 50.5t131 19q130 0 197 -72.5t67 -193.5q0 -48 -12 -104z" />
    <glyph glyph-name="afii10102" unicode="&#x455;" horiz-adv-x="872" 
d="M805 801h-152q9 41 9 73q0 60 -34.5 88.5t-107.5 28.5q-89 0 -142.5 -60.5t-53.5 -152.5q0 -58 39 -90t120 -63q48 -19 78.5 -32.5t69 -37.5t61 -48.5t38 -61.5t15.5 -80q0 -181 -126.5 -287.5t-313.5 -106.5q-149 0 -215.5 53.5t-66.5 165.5q0 54 16 129h147
q-10 -55 -10 -88q0 -66 35 -97.5t115 -31.5q67 0 122 21t92.5 72.5t37.5 126.5q0 60 -49 97.5t-160 80.5q-207 80 -207 241q0 166 112.5 273.5t270.5 107.5q131 0 200.5 -58.5t69.5 -170.5q0 -51 -10 -92z" />
    <glyph glyph-name="afii10103" unicode="&#x456;" horiz-adv-x="442" 
d="M414 1094l-234 -1094h-155l233 1094h156zM453 1278h-156l43 197h156z" />
    <glyph glyph-name="afii10104" unicode="&#x457;" horiz-adv-x="442" 
d="M414 1094l-234 -1094h-155l233 1094h156zM305 1278h-155l43 197h155zM600 1278h-156l43 197h156z" />
    <glyph glyph-name="afii10105" unicode="&#x458;" horiz-adv-x="442" 
d="M258 1094h156l-242 -1137q-40 -191 -113 -260.5t-233 -69.5l31 146q12 -4 28 -4q24 0 43.5 9.5t32 23.5t23 37t16.5 43.5t12 49.5zM453 1278h-156l43 197h156z" />
    <glyph glyph-name="afii10106" unicode="&#x459;" horiz-adv-x="1474" 
d="M322 1094h645l-95 -453h220q113 0 177 -68.5t64 -179.5q0 -170 -110.5 -281.5t-268.5 -111.5h-374l204 963h-340l-92 -435q-22 -101 -44 -177.5t-52.5 -147t-66 -115.5t-83.5 -71.5t-106 -26.5q-56 0 -92 14l26 123q30 -6 66 -6q44 0 74.5 31.5t61.5 122t69 266.5z
M844 510l-80 -379h164q120 0 180.5 66t60.5 188q0 62 -36 93.5t-115 31.5h-174z" />
    <glyph glyph-name="afii10107" unicode="&#x45a;" horiz-adv-x="1466" 
d="M416 1094l-97 -453h388l96 453h155l-96 -453h219q113 0 177.5 -68.5t64.5 -179.5q0 -170 -110.5 -281.5t-268.5 -111.5h-375l109 510h-387l-109 -510h-155l233 1094h156zM834 510l-80 -379h164q120 0 180.5 66t60.5 188q0 62 -36 93.5t-115 31.5h-174z" />
    <glyph glyph-name="afii10108" unicode="&#x45b;" horiz-adv-x="985" 
d="M342 1475h156l-27 -119h279l-25 -115h-279l-57 -268h2q139 149 303 149q219 0 219 -192q0 -24 -9.5 -79.5t-52 -259t-126.5 -591.5h-156q84 375 123 557t48.5 235.5t9.5 77.5q0 121 -134 121q-98 0 -174 -67.5t-98 -167.5l-162 -756h-155l264 1241h-139l24 115h139z" />
    <glyph glyph-name="afii10109" unicode="&#x45c;" horiz-adv-x="901" 
d="M414 1094l-109 -510l488 510h184l-428 -426l205 -668h-183l-155 545l-152 -156l-84 -389h-155l233 1094h156zM530 1227l234 276h215l-317 -276h-132z" />
    <glyph glyph-name="afii10110" unicode="&#x45e;" horiz-adv-x="868" 
d="M147 1094h162l72 -873h4l428 873h162l-574 -1100q-24 -47 -39 -74t-38.5 -67.5t-41.5 -64t-44 -53t-51 -46t-56 -32.5t-67 -23t-76 -7q-55 0 -107 19l29 137q48 -25 108 -25q76 0 130.5 57.5t109.5 166.5zM399 1448h80q0 -137 139 -137q70 0 118 31.5t79 105.5h82
q-32 -123 -114.5 -183.5t-194.5 -60.5q-89 0 -142 45.5t-53 136.5q0 28 6 62z" />
    <glyph glyph-name="afii10193" unicode="&#x45f;" 
d="M416 1094l-205 -963h385l205 963h155l-231 -1094h-276l-64 -297h-143l63 297h-278l233 1094h156z" />
    <glyph glyph-name="afii10050" unicode="&#x490;" horiz-adv-x="874" 
d="M352 1475h553l39 184h139l-69 -332h-529l-284 -1327h-164z" />
    <glyph glyph-name="afii10098" unicode="&#x491;" horiz-adv-x="749" 
d="M258 1094h438l39 184h139l-65 -315h-422l-207 -963h-155z" />
    <glyph glyph-name="endash" unicode="&#x2013;" 
d="M14 569h983l-28 -139h-983z" />
    <glyph glyph-name="emdash" unicode="&#x2014;" horiz-adv-x="1966" 
d="M14 569h1966l-28 -139h-1966z" />
    <glyph glyph-name="quoteleft" unicode="&#x2018;" horiz-adv-x="438" 
d="M254 1024h-178l49 231q18 86 80.5 157t150.5 95l-18 -88q-102 -27 -139 -198h96z" />
    <glyph glyph-name="quoteright" unicode="&#x2019;" horiz-adv-x="438" 
d="M184 1475h178l-49 -232q-18 -86 -80.5 -157t-150.5 -95l18 88q103 28 140 199h-97z" />
    <glyph glyph-name="quotesinglbase" unicode="&#x201a;" horiz-adv-x="491" 
d="M209 197h178l-49 -232q-18 -86 -81 -157t-151 -95l19 88q102 27 139 199h-96z" />
    <glyph glyph-name="quotedblleft" unicode="&#x201c;" horiz-adv-x="763" 
d="M582 1024h-179l50 231q18 86 80.5 157t150.5 95l-18 -88q-103 -28 -140 -198h97zM248 1024h-178l49 231q18 86 80.5 157t150.5 95l-18 -88q-102 -27 -139 -198h96z" />
    <glyph glyph-name="quotedblright" unicode="&#x201d;" horiz-adv-x="763" 
d="M178 1475h178l-49 -232q-18 -86 -80.5 -157t-150.5 -95l18 88q102 27 139 199h-96zM512 1475h178l-49 -232q-18 -86 -80.5 -157t-150.5 -95l18 88q102 27 139 199h-96z" />
    <glyph glyph-name="quotedblbase" unicode="&#x201e;" horiz-adv-x="763" 
d="M512 197h178l-49 -232q-18 -86 -80.5 -157t-150.5 -95l18 88q102 27 139 199h-96zM178 197h178l-49 -232q-18 -86 -80.5 -157t-150.5 -95l18 88q102 27 139 199h-96z" />
    <glyph glyph-name="dagger" unicode="&#x2020;" 
d="M608 1475h156l-94 -437h336l-29 -139h-336l-264 -1245h-156l264 1245h-335l28 139h336z" />
    <glyph glyph-name="daggerdbl" unicode="&#x2021;" 
d="M743 750l-18 -86h-285q11 -28 11 -70q0 -71 -26.5 -140t-73 -128.5t-99 -108t-115.5 -92.5l4 -4q106 59 221 59q65 0 154 -27.5t125 -27.5q81 0 186 65l27 -131q-78 -51 -128 -66.5t-134 -15.5q-42 0 -91.5 18.5t-109.5 37t-127 18.5q-44 0 -87.5 -12t-73 -26.5
t-83.5 -43.5l-53 121q58 42 98.5 75t85.5 79.5t72.5 91.5t45.5 104t18 123q0 47 -13 101h-186l18 86h148q-45 127 -45 227q0 225 142.5 361.5t373.5 136.5q161 0 239 -77.5t78 -221.5q0 -65 -16 -150h-164q15 81 15 117q0 184 -195 184q-138 0 -221.5 -100.5t-83.5 -247.5
q0 -92 45 -229h321z" />
    <glyph glyph-name="bullet" unicode="&#x2022;" horiz-adv-x="546" 
d="M522 618q-22 -103 -110.5 -178t-192.5 -75q-102 0 -159 75t-35 178q22 105 111.5 180.5t191.5 75.5q103 0 159.5 -75.5t34.5 -180.5z" />
    <glyph glyph-name="ellipsis" unicode="&#x2026;" horiz-adv-x="1966" 
d="M258 197h178l-41 -197h-178zM913 197h179l-41 -197h-179zM1569 197h178l-41 -197h-178z" />
    <glyph glyph-name="perthousand" unicode="&#x2030;" horiz-adv-x="2183" 
d="M1296 1475l-989 -1506h-104l987 1506h106zM1151 713q207 0 207 -224q0 -101 -21 -184t-56 -138.5t-82 -94t-97 -55.5t-103 -17q-102 0 -154 48t-52 159q0 86 20.5 171.5t61.5 162t113 124.5t163 48zM1128 602q-49 0 -89.5 -37.5t-64.5 -95.5t-37 -120.5t-13 -117.5
q0 -120 102 -120q59 0 101.5 42t62.5 106t28.5 119.5t8.5 102.5q0 121 -99 121zM518 1446q207 0 207 -223q0 -125 -31.5 -222.5t-84 -154t-114.5 -85t-128 -28.5q-102 0 -154.5 48t-52.5 159q0 86 20.5 171.5t61.5 162t113 124.5t163 48zM496 1335q-64 0 -113 -64.5
t-70.5 -147t-21.5 -158.5q0 -121 102 -121q59 0 101.5 42t62.5 106t28.5 119.5t8.5 102.5q0 121 -98 121zM1845 713q207 0 207 -224q0 -101 -21 -184t-56 -138.5t-81.5 -94t-96.5 -55.5t-103 -17q-102 0 -154.5 48t-52.5 159q0 86 20.5 171.5t61.5 162t113 124.5t163 48z
M1823 602q-49 0 -89.5 -37.5t-65 -95.5t-37.5 -120.5t-13 -117.5q0 -120 102 -120q59 0 101.5 42t62.5 106t28.5 119.5t8.5 102.5q0 121 -98 121z" />
    <glyph glyph-name="guilsinglleft" unicode="&#x2039;" horiz-adv-x="544" 
d="M139 674l361 301l-35 -164l-240 -201l154 -200l-35 -164l-231 307z" />
    <glyph glyph-name="guilsinglright" unicode="&#x203a;" horiz-adv-x="544" 
d="M406 547l-361 -301l35 164l239 200l-153 201l35 164l231 -307z" />
    <glyph glyph-name="Euro" unicode="&#x20ac;" 
d="M1090 1397l-37 -170q-69 92 -234 92q-139 0 -236 -101.5t-151 -279.5h486l-70 -135h-459q-3 -12 -9 -38.5t-9 -37.5q-4 -16 -9 -44.5t-6 -33.5h412l-68 -135h-358q-23 -191 34.5 -289t190.5 -98q157 0 273 90l-37 -172q-42 -30 -119 -52t-174 -22q-389 0 -330 543h-137
l70 135h82q3 30 14 78q2 6 8 34.5t10 41.5h-123l70 135h92q81 255 221 396t342 141q92 0 160.5 -23t100.5 -55z" />
    <glyph glyph-name="afii61352" unicode="&#x2116;" horiz-adv-x="1728" 
d="M1538 983q100 0 148.5 -56.5t48.5 -156.5q0 -42 -15 -123q-37 -172 -112.5 -264t-216.5 -92q-108 0 -153.5 49t-45.5 143q0 66 20 164q32 152 112 244t214 92zM1520 905q-76 0 -126 -66.5t-79 -205.5q-17 -83 -17 -131q0 -133 109 -133q85 0 130.5 66t72.5 194
q18 83 18 139q0 137 -108 137zM1599 80h-507l16 78h508zM352 1475h264l162 -1207q14 -103 19 -162h4q12 79 30 164l256 1205h164l-315 -1475h-268l-162 1180q-10 82 -10 155v66h-2q-18 -115 -41 -223l-252 -1178h-164z" />
    <glyph glyph-name="trademark" unicode="&#x2122;" horiz-adv-x="1474" 
d="M758 1475h174l69 -586l328 586h174l-176 -830h-108l151 711h-4l-383 -711h-63l-76 711h-2l-152 -711h-108zM88 1475h551l-25 -119h-213l-151 -711h-121l152 711h-218z" />
    <glyph glyph-name="hyphenminus" horiz-adv-x="684" 
d="M121 569h512l-29 -139h-512z" />
    </font>
</defs>
</svg>
