<?xml version="1.0" standalone="no"?>
<!DOCTYPE svg PUBLIC "-//W3C//DTD SVG 1.1//EN" "http://www.w3.org/Graphics/SVG/1.1/DTD/svg11.dtd" >
<svg xmlns="http://www.w3.org/2000/svg" xmlns:xlink="http://www.w3.org/1999/xlink" version="1.1">
<metadata>
Created by FontForge 20170731 at Fri Jan  1 02:30:17 1904
 By Aleksey,,,
Copyright (C) 1993; Type Market Ltd. Moscow, 119136, Box 20; phone:(095)1427712; Created by A.Kustov
</metadata>
<defs>
<font id="HeliosCondBold" horiz-adv-x="1917" >
  <font-face 
    font-family="HeliosCond"
    font-weight="700"
    font-stretch="normal"
    units-per-em="4096"
    panose-1="2 11 -30 0 0 0 0 0 0 0"
    ascent="3276"
    descent="-820"
    x-height="2236"
    cap-height="2957"
    bbox="-94 -762 3506 3760"
    underline-thickness="40"
    underline-position="-100"
    unicode-range="U+0020-2122"
  />
<missing-glyph horiz-adv-x="3072" 
d="M512 0v2560h2048v-2560h-2048zM2494 66v2428h-1916v-2428h1916z" />
    <glyph glyph-name=".notdef" horiz-adv-x="3072" 
d="M512 0v2560h2048v-2560h-2048zM2494 66v2428h-1916v-2428h1916z" />
    <glyph glyph-name=".null" horiz-adv-x="0" 
 />
    <glyph glyph-name="nonmarkingreturn" horiz-adv-x="0" 
 />
    <glyph glyph-name="space" unicode=" " horiz-adv-x="983" 
 />
    <glyph glyph-name="exclam" unicode="!" horiz-adv-x="782" 
d="M131 528h492v-528h-492v528zM131 1733v1224h492v-1224l-70 -963h-324z" />
    <glyph glyph-name="quotedbl" unicode="&#x22;" horiz-adv-x="1483" 
d="M139 1847v1065h479v-1065h-479zM1327 1847h-475v1065h475v-1065z" />
    <glyph glyph-name="numbersign" unicode="#" horiz-adv-x="1864" 
d="M995 2871l-131 -876h287l131 876h324l-107 -876h270v-377h-331l-29 -344h262v-377h-307l-119 -897h-340l115 897h-270l-127 -897h-344l122 897h-335v377h372l54 344h-349v377h389l123 876h340zM1057 1274l49 344h-270l-45 -344h266z" />
    <glyph glyph-name="dollar" unicode="$" horiz-adv-x="2142" 
d="M168 1032h537v-114q0 -521 409 -521q157 0 244.5 87.5t87.5 228.5t-73 240t-234 202l-500 328q-442 288 -442 762q0 310 184.5 508.5t495.5 244.5v357h368v-357q701 -81 701 -884v-91h-537v33q0 504 -352 504q-127 0 -213 -66t-86 -184q0 -124 46 -198t142 -138l574 -381
q183 -122 285 -218.5t160 -241t58 -371.5q0 -361 -199 -570.5t-579 -240.5v-344h-368v360q-232 40 -391 164t-238.5 323t-79.5 464v114z" />
    <glyph glyph-name="percent" unicode="%" horiz-adv-x="3273" 
d="M709 2953q267 0 401 -95.5t171.5 -244.5t37.5 -377q0 -230 -37.5 -379.5t-171.5 -245t-401 -95.5q-265 0 -397 95.5t-169 245t-37 379.5q0 228 37 377t169 244.5t397 95.5zM717 2666q-103 0 -152 -50t-63.5 -139.5t-14.5 -240.5q0 -231 41.5 -332.5t188.5 -101.5
q144 0 184.5 101.5t40.5 332.5q0 227 -41.5 328.5t-183.5 101.5zM1085 0h-278l1323 3011h274zM2540 1499q268 0 401 -95.5t169 -245.5t36 -380q0 -227 -36 -376.5t-169 -245t-401 -95.5q-266 0 -398.5 95.5t-168.5 245t-36 376.5q0 230 36 380t168.5 245.5t398.5 95.5z
M2544 1212q-147 0 -188.5 -101t-41.5 -333q0 -222 45 -326t185 -104q136 0 178.5 103.5t42.5 326.5q0 227 -42.5 330.5t-178.5 103.5z" />
    <glyph glyph-name="ampersand" unicode="&#x26;" horiz-adv-x="2621" 
d="M1200 2048q230 178 230 360q0 98 -61 164t-136 66q-81 0 -135 -47.5t-54 -145.5q0 -62 24 -124.5t70.5 -150.5t61.5 -122zM1425 1683l369 -639q41 88 65.5 239t24.5 298h438q0 -549 -258 -991l353 -590h-590l-107 197q-147 -141 -307 -195.5t-381 -54.5t-401 115.5
t-282.5 318t-102.5 450.5q0 210 66 373t188.5 294.5t302.5 258.5q-112 188 -171 335.5t-59 303.5q0 321 201 476t479 155q161 0 303 -73t229 -211t87 -322q0 -233 -120 -422t-327 -316zM1511 549l-475 811q-54 -19 -119 -92.5t-110 -185.5t-45 -242q0 -169 114 -312
t279 -143q178 0 356 164z" />
    <glyph glyph-name="quotesingle" unicode="'" horiz-adv-x="860" 
d="M193 1847v1065h479v-1065h-479z" />
    <glyph glyph-name="parenleft" unicode="(" horiz-adv-x="1196" 
d="M1090 3052q-80 -122 -154 -318.5t-131.5 -450t-91 -545.5t-33.5 -591q0 -325 43 -652.5t136 -645.5t231 -582h-349q-259 421 -414 919t-155 1022q0 1000 569 1844h349z" />
    <glyph glyph-name="parenright" unicode=")" horiz-adv-x="1200" 
d="M53 3052q79 -117 152 -311t131.5 -446t92.5 -544t34 -604q0 -325 -43 -652.5t-136 -645.5t-231 -582h348q260 419 415 915t155 1026q0 1000 -570 1844h-348z" />
    <glyph glyph-name="asterisk" unicode="*" horiz-adv-x="1548" 
d="M905 2937v-467l402 156l118 -316l-438 -123l291 -340l-291 -221l-246 377l-249 -377l-246 193l246 368l-431 123l127 316l406 -156v467h311z" />
    <glyph glyph-name="plus" unicode="+" horiz-adv-x="1995" 
d="M119 1126h684v746h401v-746h688v-397h-688v-729h-401v729h-684v397z" />
    <glyph glyph-name="comma" unicode="," horiz-adv-x="668" 
d="M94 528h492v-581q0 -107 -56.5 -218.5t-155 -184t-214.5 -72.5h-33v192q250 0 250 336h-283v528z" />
    <glyph glyph-name="hyphen" unicode="-" horiz-adv-x="1311" 
d="M123 868v361h1061v-361h-1061z" />
    <glyph glyph-name="period" unicode="." horiz-adv-x="680" 
d="M90 0v524h512v-524h-512z" />
    <glyph glyph-name="slash" unicode="/" horiz-adv-x="1405" 
d="M53 -336l922 3293h381l-930 -3293h-373z" />
    <glyph glyph-name="zero" unicode="0" horiz-adv-x="2077" 
d="M225 717v1470q0 228 108.5 403.5t295.5 271t415 95.5q242 0 425.5 -93.5t282.5 -268t99 -408.5v-1470q0 -234 -99 -408.5t-282.5 -268t-425.5 -93.5q-228 0 -415 95.5t-295.5 271t-108.5 403.5zM758 2236v-1568q0 -127 82.5 -199t203.5 -72q116 0 195.5 72t79.5 199v1568
q0 127 -78.5 199t-196.5 72q-123 0 -204.5 -72t-81.5 -199z" />
    <glyph glyph-name="one" unicode="1" horiz-adv-x="1942" 
d="M770 0v1999h-664v401h70q311 0 500 140.5t242 363.5h380v-2904h-528z" />
    <glyph glyph-name="two" unicode="2" horiz-adv-x="2015" 
d="M1778 446v-446h-1610v152q0 284 89 508.5t219.5 387.5t265 285t274.5 248q188 188 243.5 295t55.5 258q0 373 -291 373q-146 0 -220.5 -102t-74.5 -345v-159h-524v172q0 283 117 484t306 300.5t396 99.5q228 0 416.5 -95t297.5 -272.5t109 -406.5q0 -230 -102.5 -454
t-290.5 -406q-180 -164 -328 -300t-244.5 -275.5t-115.5 -301.5h1012z" />
    <glyph glyph-name="three" unicode="3" horiz-adv-x="2048" 
d="M1008 1335h-234v398h156q239 0 314 139.5t75 343.5q0 307 -262 307q-135 0 -209 -91.5t-74 -260.5v-98h-495v122q0 338 209.5 550t568.5 212q243 0 420.5 -85.5t271.5 -249.5t94 -390q0 -282 -104 -437.5t-309 -229.5q458 -104 458 -742q0 -311 -96.5 -506t-284.5 -282.5
t-467 -87.5q-385 0 -577.5 221t-192.5 573v172h504v-102q0 -430 283 -430q181 0 236 111.5t55 347.5q0 274 -77 384.5t-263 110.5z" />
    <glyph glyph-name="four" unicode="4" horiz-adv-x="2011" 
d="M1085 0v586h-917v524l819 1798h627v-1876h258v-446h-258v-586h-529zM549 1032h536v1204z" />
    <glyph glyph-name="five" unicode="5" horiz-adv-x="1942" 
d="M672 1368h-504l61 1536h1413v-446h-966l-25 -619q183 189 410 189q353 0 533 -222.5t180 -629.5v-267q0 -248 -47.5 -430.5t-144 -298.5t-248 -174.5t-363.5 -58.5q-398 0 -617 212t-219 611v131h516q0 -299 70 -409.5t225 -110.5q107 0 168 41t88 145.5t27 300.5v283
q0 426 -295 426q-96 0 -164.5 -55.5t-97.5 -153.5z" />
    <glyph glyph-name="six" unicode="6" horiz-adv-x="1942" 
d="M180 639v1507q0 228 92.5 414t270.5 291.5t424 105.5q234 0 417.5 -83t284 -231.5t100.5 -336.5v-37h-532v29q0 102 -66 163.5t-192 61.5q-136 0 -201 -91t-65 -306v-344q73 85 208 145t250 60q175 0 310 -76t211.5 -224.5t76.5 -355.5v-696q0 -349 -220 -518.5
t-586 -169.5q-214 0 -390.5 71.5t-284.5 227t-108 393.5zM1237 664v589q0 131 -76 207t-182 76q-115 0 -190.5 -73.5t-75.5 -217.5v-581q0 -291 250 -291q274 0 274 291z" />
    <glyph glyph-name="seven" unicode="7" horiz-adv-x="1933" 
d="M1274 2454h-1139v446h1675v-414q-280 -550 -466 -1147.5t-234 -1338.5h-582q74 665 279 1330.5t467 1123.5z" />
    <glyph glyph-name="eight" unicode="8" horiz-adv-x="2048" 
d="M1020 1331q-266 0 -266 -397v-148q0 -405 266 -405t266 405v148q0 397 -266 397zM1020 2523q-130 0 -186 -96.5t-56 -308.5q0 -373 242 -373q130 0 186 90t56 283q0 215 -53.5 310t-188.5 95zM606 1561q-344 187 -344 675q0 241 97.5 403t268.5 240t392 78t392 -78
t268.5 -240t97.5 -403q0 -500 -328 -675q197 -89 289 -263t92 -467q0 -317 -85 -511.5t-263.5 -283.5t-462.5 -89q-209 0 -361.5 50t-252 156t-148.5 273t-49 405q0 498 397 730z" />
    <glyph glyph-name="nine" unicode="9" horiz-adv-x="1921" 
d="M1782 2265v-1507q0 -238 -89 -422t-268.5 -286.5t-441.5 -102.5q-176 0 -323 47t-251.5 134t-160 206.5t-55.5 259.5v41h532v-33q0 -103 73.5 -162t192.5 -59q258 0 258 364v398q-222 -209 -458 -209q-268 0 -433 171.5t-165 483.5v688q0 230 114 384t295 225t389 71
q214 0 392.5 -71.5t288.5 -227.5t110 -393zM725 2241v-574q0 -131 77 -207t181 -76q113 0 189.5 73.5t76.5 217.5v566q0 145 -67 217.5t-191 72.5q-266 0 -266 -290z" />
    <glyph glyph-name="colon" unicode=":" horiz-adv-x="778" 
d="M135 1683v525h512v-525h-512zM135 0v524h512v-524h-512z" />
    <glyph glyph-name="semicolon" unicode=";" horiz-adv-x="778" 
d="M135 1683v525h512v-525h-512zM135 0v524h512v-581q0 -107 -56.5 -218.5t-155 -184t-214.5 -72.5h-33v192q250 0 250 340h-303z" />
    <glyph glyph-name="less" unicode="&#x3c;" horiz-adv-x="1884" 
d="M106 836v381l1684 909v-447l-1180 -655l1180 -659v-414z" />
    <glyph glyph-name="equal" unicode="=" horiz-adv-x="1974" 
d="M98 1196v434h1774v-434h-1774zM1872 410h-1774v434h1774v-434z" />
    <glyph glyph-name="greater" unicode="&#x3e;" horiz-adv-x="1884" 
d="M201 401l1130 668l-1155 643v447l1651 -906v-381l-1626 -917v446z" />
    <glyph glyph-name="question" unicode="?" horiz-adv-x="1798" 
d="M1012 795h-512q0 273 52 455t126 283.5t186 207.5q283 267 283 557q0 139 -73 210.5t-193 71.5q-254 0 -254 -344v-98h-488v98q0 375 208 577t554 202q206 0 384.5 -74.5t286 -216t107.5 -332.5q0 -190 -17 -305.5t-90.5 -250t-232.5 -288.5q-165 -162 -246 -297
t-81 -305v-151zM500 0v524h512v-524h-512z" />
    <glyph glyph-name="at" unicode="@" horiz-adv-x="3994" 
d="M2380 1540q0 152 -91.5 250t-236.5 98q-134 0 -244.5 -83t-172.5 -212.5t-62 -257.5q0 -161 86 -262.5t233 -101.5q139 0 251 84t174.5 217.5t62.5 267.5zM2503 2019l53 217h360q-187 -817 -226.5 -996.5t-39.5 -219.5q0 -86 62 -86q111 0 218 89t175.5 254t68.5 378
q0 323 -145.5 558t-401 356.5t-571.5 121.5q-343 0 -609.5 -160.5t-412 -441t-145.5 -627.5q0 -357 157.5 -633.5t436.5 -427.5t631 -151q248 0 470.5 88.5t389.5 243.5h364q-142 -210 -336 -358t-426 -225t-487 -77q-439 0 -807.5 201.5t-583.5 556t-215 790.5
q0 321 123 605.5t343 497.5t507.5 329.5t607.5 116.5q280 0 540.5 -90.5t464 -259t320.5 -403t117 -513.5q0 -309 -114.5 -539.5t-285.5 -373t-348 -211t-296 -68.5q-94 0 -161 56t-73 161l-8 4q-85 -95 -201 -158t-229 -63q-176 0 -327.5 98t-242 263.5t-90.5 351.5
q0 259 110.5 492t311.5 376.5t455 143.5q331 0 496 -267z" />
    <glyph glyph-name="A" unicode="A" horiz-adv-x="2208" 
d="M20 0l750 2957h754l655 -2957h-606l-139 770h-635l-176 -770h-603zM868 1208h496l-225 1377z" />
    <glyph glyph-name="B" unicode="B" horiz-adv-x="2159" 
d="M766 2535v-778h295q348 0 348 402q0 195 -77.5 285.5t-262.5 90.5h-303zM766 422h360q161 0 236.5 107t75.5 352q0 454 -312 454h-360v-913zM1335 0h-1130v2957h1036q247 0 411.5 -98t241 -261.5t76.5 -361.5q0 -142 -49.5 -284.5t-140 -241t-207.5 -121.5
q223 -90 330.5 -259.5t107.5 -452.5q0 -262 -75.5 -459t-227.5 -307.5t-373 -110.5z" />
    <glyph glyph-name="C" unicode="C" horiz-adv-x="2118" 
d="M1393 1995v65q0 277 -76 388.5t-256 111.5q-181 0 -260.5 -112.5t-79.5 -387.5v-1163q0 -283 77.5 -397.5t258.5 -114.5q174 0 255 117t81 395v160h565v-135q0 -288 -82 -508t-282.5 -350t-532.5 -130q-510 0 -712 268.5t-202 719.5v1073q0 515 231 765.5t691 250.5
q280 0 481.5 -105t304.5 -303.5t103 -468.5v-139h-565z" />
    <glyph glyph-name="D" unicode="D" horiz-adv-x="2294" 
d="M205 0v2957h991q273 0 476 -115t324.5 -411t121.5 -809v-147q0 -1475 -889 -1475h-1024zM1135 2519h-369v-2081h352q172 0 265 133t125 357.5t32 554.5q0 369 -37.5 595.5t-126 333.5t-241.5 107z" />
    <glyph glyph-name="E" unicode="E" horiz-adv-x="1933" 
d="M205 0v2957h1581v-475h-1020v-672h930v-446h-930v-913h1020v-451h-1581z" />
    <glyph glyph-name="F" unicode="F" horiz-adv-x="1843" 
d="M205 0v2957h1552v-475h-991v-696h938v-451h-938v-1335h-561z" />
    <glyph glyph-name="G" unicode="G" horiz-adv-x="2261" 
d="M1130 1585h934v-1585h-438v332q-96 -200 -235 -292.5t-392 -92.5q-236 0 -426.5 110t-303.5 345.5t-113 592.5v967q0 518 245.5 783.5t728.5 265.5q327 0 537.5 -128t303.5 -338.5t93 -463.5v-82h-561q0 297 -90.5 429t-282.5 132q-213 0 -307 -132.5t-94 -428.5v-938
q0 -234 39.5 -380t127 -215t234.5 -69q188 0 280.5 130.5t92.5 422.5v197h-373v438z" />
    <glyph glyph-name="H" unicode="H" horiz-adv-x="2294" 
d="M205 0v2957h561v-1147h741v1147h561v-2957h-561v1364h-741v-1364h-561z" />
    <glyph glyph-name="I" unicode="I" horiz-adv-x="983" 
d="M209 2957h561v-2957h-561v2957z" />
    <glyph glyph-name="J" unicode="J" horiz-adv-x="1855" 
d="M1081 684v2273h561v-2306q0 -216 -91.5 -375t-267.5 -244t-419 -85q-383 0 -566 179.5t-183 582.5v241h549v-299q0 -254 200 -254q217 0 217 287z" />
    <glyph glyph-name="K" unicode="K" horiz-adv-x="2195" 
d="M205 0v2957h561v-1282l680 1282h635l-750 -1282l774 -1675h-626l-492 1180l-221 -291v-889h-561z" />
    <glyph glyph-name="L" unicode="L" horiz-adv-x="1880" 
d="M205 0v2957h561v-2506h1020v-451h-1581z" />
    <glyph glyph-name="M" unicode="M" horiz-adv-x="2998" 
d="M205 2957v-2957h528v2675l561 -2675h402l561 2679v-2679h528v2957h-897l-393 -1921l-393 1921h-897z" />
    <glyph glyph-name="N" unicode="N" horiz-adv-x="2302" 
d="M205 0v2957h606l823 -2150q-73 403 -73 1102v1048h528v-2957h-606l-824 2146q74 -359 74 -1102v-1044h-528z" />
    <glyph glyph-name="O" unicode="O" horiz-adv-x="2269" 
d="M172 1999v-1057q0 -995 963 -995q297 0 508 94.5t326.5 315.5t115.5 585v1057q0 364 -116 589.5t-326.5 324t-507.5 98.5q-293 0 -508 -100.5t-335 -326t-120 -585.5zM745 872v1192q0 496 390 496q181 0 278.5 -133t97.5 -371v-1184q0 -231 -96.5 -353t-279.5 -122
q-390 0 -390 475z" />
    <glyph glyph-name="P" unicode="P" horiz-adv-x="2191" 
d="M205 0v2957h1061q233 0 411 -115t274.5 -312.5t96.5 -436.5q0 -244 -98.5 -447.5t-279 -322.5t-413.5 -119h-491v-1204h-561zM1049 2519h-283v-877h283q421 0 421 443q0 434 -421 434z" />
    <glyph glyph-name="Q" unicode="Q" horiz-adv-x="2269" 
d="M172 1999v-1049q0 -1003 963 -1003q311 0 528 102l311 -287l267 258l-291 279q135 218 135 696v1004q0 364 -116 589.5t-326.5 324t-507.5 98.5q-293 0 -508 -100.5t-335 -326t-120 -585.5zM745 872v1201q0 487 390 487q180 0 278 -134t98 -370v-1032q0 -231 -12 -303
l-86 86l-278 -270l135 -123q-53 -17 -135 -17q-390 0 -390 475z" />
    <glyph glyph-name="R" unicode="R" horiz-adv-x="2294" 
d="M1176 1253h-410v-1253h-561v2957h1167q223 0 391 -101t259.5 -277.5t91.5 -387.5q0 -318 -120.5 -494t-326.5 -206q222 -45 314 -191.5t92 -336.5v-377q0 -254 23.5 -375t111.5 -121v-90h-561q-136 110 -136 483v340q0 430 -335 430zM766 2519v-844h377q171 0 284 101
t113 333q0 230 -103 320t-307 90h-364z" />
    <glyph glyph-name="S" unicode="S" horiz-adv-x="2142" 
d="M152 1032h536v-114q0 -521 410 -521q157 0 244.5 87.5t87.5 228.5q0 139 -72 238t-236 204l-499 328q-443 288 -443 762q0 358 241 562t632 204q278 0 475.5 -101t299 -302t101.5 -494v-91h-536v33q0 504 -353 504q-126 0 -212.5 -66t-86.5 -184q0 -122 45.5 -196.5
t143.5 -139.5l573 -381q171 -114 279 -220t166.5 -252t58.5 -359q0 -260 -104.5 -442.5t-309 -277.5t-495.5 -95q-308 0 -521 115.5t-319 333.5t-106 522v114z" />
    <glyph glyph-name="T" unicode="T" horiz-adv-x="2003" 
d="M1933 2957v-475h-643v-2482h-561v2482h-659v475h1863z" />
    <glyph glyph-name="U" unicode="U" horiz-adv-x="2286" 
d="M205 795v2162h561v-2080q0 -246 90 -363t287 -117q204 0 288.5 113t84.5 367v2080h561v-2162q0 -848 -934 -848q-241 0 -419 56.5t-293.5 165.5t-170.5 265.5t-55 360.5z" />
    <glyph glyph-name="V" unicode="V" horiz-adv-x="2134" 
d="M643 2957l430 -2461h8l402 2461h577l-577 -2957h-807l-627 2957h594z" />
    <glyph glyph-name="W" unicode="W" horiz-adv-x="3277" 
d="M2662 2957l-335 -2470h-5l-368 2470h-598l-369 -2470h-4l-336 2470h-565l475 -2957h791l307 2060h4l303 -2060h791l475 2957h-566z" />
    <glyph glyph-name="X" unicode="X" horiz-adv-x="2249" 
d="M774 1520l-684 1437h651l381 -962l402 962h630l-729 -1437l754 -1520h-627l-430 1090l-446 -1090h-615z" />
    <glyph glyph-name="Y" unicode="Y" horiz-adv-x="2224" 
d="M709 2957l393 -1138l446 1138h635l-799 -1687v-1270h-561v1270l-778 1687h664z" />
    <glyph glyph-name="Z" unicode="Z" horiz-adv-x="2003" 
d="M127 422l1085 2097h-1032v438h1622v-438l-1077 -2081h1106v-438h-1704v422z" />
    <glyph glyph-name="bracketleft" unicode="[" horiz-adv-x="1110" 
d="M188 2957h816v-307h-349v-2703h377v-307h-844v3317z" />
    <glyph glyph-name="backslash" unicode="\" horiz-adv-x="1405" 
d="M1356 -336l-922 3293h-381l930 -3293h373z" />
    <glyph glyph-name="bracketright" unicode="]" horiz-adv-x="1188" 
d="M971 2957h-815v-307h348v-2703h-377v-307h844v3317z" />
    <glyph glyph-name="asciicircum" unicode="^" horiz-adv-x="2105" 
d="M877 2966h430l712 -1496l-393 -192l-536 1102l-562 -1102l-389 192z" />
    <glyph glyph-name="underscore" unicode="_" horiz-adv-x="2109" 
d="M53 -201h1995v-245h-1995v245z" />
    <glyph glyph-name="grave" unicode="`" horiz-adv-x="1303" 
d="M831 2957h-647l590 -557h402z" />
    <glyph glyph-name="a" unicode="a" 
d="M1184 610v545l-332 -213q-172 -111 -172 -319q0 -137 54 -222.5t167 -85.5q123 0 203 76t80 219zM717 1294q238 101 352.5 182t114.5 207q0 197 -242 197q-116 0 -189 -72.5t-73 -214.5v-45h-492v111q0 131 54.5 247t156.5 203.5t239 136t300 48.5q348 0 561 -141.5
t213 -432.5v-1392q0 -126 13.5 -200.5t52.5 -127.5h-529q-41 63 -41 213q-81 -142 -189.5 -210.5t-297.5 -68.5q-260 0 -417 157t-157 462q0 192 60.5 326.5t186.5 233.5t323 181z" />
    <glyph glyph-name="b" unicode="b" horiz-adv-x="1909" 
d="M709 1606v-1008q0 -129 73 -199.5t176 -70.5q104 0 173 68t69 194v1024q0 128 -68 195t-174 67q-105 0 -177 -70t-72 -200zM709 229v-229h-504v2957h504v-884q62 92 175 156.5t255 64.5q252 0 418.5 -155t166.5 -472v-1102q0 -307 -168.5 -469t-416.5 -162
q-126 0 -242 86.5t-188 208.5z" />
    <glyph glyph-name="c" unicode="c" horiz-adv-x="1749" 
d="M1077 1425v254q0 98 -55.5 149.5t-140.5 51.5q-98 0 -155.5 -57.5t-57.5 -171.5v-1073q0 -230 213 -230q83 0 139.5 51.5t56.5 149.5v315h504v-340q0 -188 -103 -322t-264.5 -201t-332.5 -67q-328 0 -533 175t-205 456v1098q0 186 92.5 330t261 222.5t384.5 78.5
q171 0 332.5 -67t264.5 -201t103 -322v-279h-504z" />
    <glyph glyph-name="d" unicode="d" horiz-adv-x="1876" 
d="M1171 598v1008q0 132 -72 201t-177 69t-173.5 -67.5t-68.5 -194.5v-1024q0 -125 69.5 -193.5t172.5 -68.5t176 70t73 200zM1171 2073v884h504v-2957h-504v229q-70 -134 -184 -214.5t-246 -80.5q-159 0 -292 70t-213 213.5t-80 347.5v1102q0 214 79.5 355.5t211 206.5
t294.5 65q143 0 257 -65t173 -156z" />
    <glyph glyph-name="e" unicode="e" horiz-adv-x="1847" 
d="M152 643v942q0 244 97 403.5t269.5 232.5t403.5 73q228 0 402 -74t271 -233t97 -402v-520h-1037v-487q0 -120 71 -185t196 -65q122 0 194 67t72 183v127h504v-62q0 -361 -207.5 -535t-562.5 -174q-231 0 -403.5 73t-269.5 232.5t-97 403.5zM655 1651v-217h533v217
q0 116 -72 183t-194 67q-126 0 -196.5 -64.5t-70.5 -185.5z" />
    <glyph glyph-name="f" unicode="f" horiz-adv-x="1008" 
d="M25 2236h213v226q0 147 39 253.5t163 174t355 67.5h155v-405q-127 0 -168 -24.5t-41 -110.5v-181h230v-368h-230v-1868h-503v1868h-213v368z" />
    <glyph glyph-name="g" unicode="g" horiz-adv-x="1892" 
d="M1171 598v1008q0 132 -72 201t-177 69t-173.5 -67.5t-68.5 -194.5v-1024q0 -125 69.5 -193.5t172.5 -68.5t176 70t73 200zM1171 2073v163h504v-2302q0 -240 -71.5 -393.5t-230 -228t-419.5 -74.5q-354 0 -539.5 128t-226.5 396h492q49 -131 242 -131q113 0 181 54t68 159
v385q-70 -134 -184 -214.5t-246 -80.5q-159 0 -292 70t-213 213.5t-80 347.5v1102q0 214 79.5 355.5t211 206.5t294.5 65q143 0 257 -65t173 -156z" />
    <glyph glyph-name="h" unicode="h" horiz-adv-x="1933" 
d="M213 0v2957h504v-905q65 98 178 170t252 72q248 0 402.5 -155.5t154.5 -475.5v-1663h-504v1606q0 130 -66 202t-184 72q-106 0 -169.5 -73.5t-63.5 -200.5v-1606h-504z" />
    <glyph glyph-name="i" unicode="i" horiz-adv-x="918" 
d="M201 2454v503h504v-503h-504zM201 0v2236h504v-2236h-504z" />
    <glyph glyph-name="j" unicode="j" horiz-adv-x="942" 
d="M229 2454v503h504v-503h-504zM229 -152v2388h504v-2580q0 -397 -504 -397q-168 0 -192 8v389h69q62 0 92.5 40.5t30.5 151.5z" />
    <glyph glyph-name="k" unicode="k" horiz-adv-x="1741" 
d="M213 0v2957h504v-1552l463 831h528l-528 -901l528 -1335h-561l-311 868l-119 -229v-639h-504z" />
    <glyph glyph-name="l" unicode="l" horiz-adv-x="922" 
d="M205 0v2957h504v-2957h-504z" />
    <glyph glyph-name="m" unicode="m" horiz-adv-x="2863" 
d="M696 1593v-1593h-491v2236h491v-217q162 275 484 275q181 0 274 -59.5t164 -202.5q59 112 193 187t290 75q238 0 391.5 -122.5t153.5 -344.5v-1827h-492v1593q0 287 -258 287q-104 0 -164.5 -76t-60.5 -211v-1593h-491v1593q0 287 -258 287q-104 0 -165 -76t-61 -211z
" />
    <glyph glyph-name="n" unicode="n" 
d="M213 0v2236h479v-204q56 109 177.5 185.5t277.5 76.5q248 0 402.5 -155.5t154.5 -475.5v-1663h-504v1606q0 131 -60.5 202.5t-176.5 71.5q-114 0 -180 -73t-66 -201v-1606h-504z" />
    <glyph glyph-name="o" unicode="o" horiz-adv-x="1896" 
d="M152 664v901q0 205 77 369.5t254 262t463 97.5q280 0 457 -97.5t255.5 -262.5t78.5 -369v-901q0 -204 -79 -369.5t-255.5 -263t-456.5 -97.5q-286 0 -463 97.5t-254 262.5t-77 370zM1212 598v1032q0 149 -66.5 210t-199.5 61q-270 0 -270 -271v-1032q0 -270 270 -270
q133 0 199.5 60t66.5 210z" />
    <glyph glyph-name="p" unicode="p" horiz-adv-x="1901" 
d="M717 1606v-967q0 -143 77.5 -227t172.5 -84q106 0 173.5 83t67.5 228v967q0 135 -66 204.5t-175 69.5q-97 0 -173.5 -72.5t-76.5 -201.5zM717 238v-943h-504v2941h504v-249q56 147 176 227t258 80q169 0 300.5 -65t206.5 -194t75 -311v-1073q0 -368 -165 -542.5
t-417 -174.5q-304 0 -434 304z" />
    <glyph glyph-name="q" unicode="q" horiz-adv-x="1909" 
d="M1180 1606q0 129 -76.5 201.5t-173.5 72.5q-109 0 -175.5 -70t-66.5 -204v-967q0 -144 68 -227.5t174 -83.5q95 0 172.5 84t77.5 227v967zM1180 1987v249h503v-2941h-503v943q-80 -146 -197 -225t-238 -79q-252 0 -416.5 174.5t-164.5 542.5v1073q0 270 166.5 420
t414.5 150q139 0 258.5 -79.5t176.5 -227.5z" />
    <glyph glyph-name="r" unicode="r" horiz-adv-x="1237" 
d="M197 0v2236h479v-426q132 459 528 459v-557q-137 0 -241.5 -27t-183.5 -135t-79 -325v-1225h-503z" />
    <glyph glyph-name="s" unicode="s" horiz-adv-x="1774" 
d="M139 721h492v-123q0 -135 71 -202.5t183 -67.5q107 0 176 53t69 160q0 163 -229 311l-414 262q-335 215 -335 582q0 188 95 324t260.5 205t364.5 69q217 0 383.5 -82t258.5 -242.5t92 -384.5v-45h-492v53q0 148 -65 228t-177 80q-217 0 -217 -205q0 -70 40.5 -123.5
t148.5 -122.5l352 -221q438 -275 438 -697q0 -253 -123.5 -386t-291 -172.5t-359.5 -39.5q-306 0 -513.5 179.5t-207.5 504.5v103z" />
    <glyph glyph-name="t" unicode="t" horiz-adv-x="1102" 
d="M786 2236h230v-397h-230v-1249q0 -129 43.5 -175t186.5 -46v-381q-96 -17 -250 -17q-483 0 -483 430v1438h-213v397h213v603h503v-603z" />
    <glyph glyph-name="u" unicode="u" 
d="M1200 618v1618h504v-2236h-479v229q-162 -295 -455 -295q-247 0 -402 159.5t-155 479.5v1663h504v-1613q0 -275 241 -275q242 0 242 270z" />
    <glyph glyph-name="v" unicode="v" horiz-adv-x="1786" 
d="M29 2236l520 -2236h688l520 2236h-532l-332 -1814l-332 1814h-532z" />
    <glyph glyph-name="w" unicode="w" horiz-adv-x="2523" 
d="M541 2236h-521l431 -2236h610l201 1335h4l204 -1335h611l430 2236h-520l-258 -1749h-4l-283 1749h-361l-282 -1749h-4z" />
    <glyph glyph-name="x" unicode="x" horiz-adv-x="1733" 
d="M1683 2236h-557l-254 -618l-254 618h-557l557 -1118l-585 -1118h585l254 639l254 -639h586l-586 1118z" />
    <glyph glyph-name="y" unicode="y" horiz-adv-x="1778" 
d="M594 2236l299 -1716h8l287 1716h528l-594 -2519q-44 -187 -109 -284.5t-163.5 -135.5t-259.5 -38q-141 0 -266 16v381h184q110 0 110 143q0 28 -114 499.5t-471 1937.5h561z" />
    <glyph glyph-name="z" unicode="z" horiz-adv-x="1589" 
d="M131 2236h1327v-397l-762 -1442h795v-397h-1360v422l766 1417h-766v397z" />
    <glyph glyph-name="braceleft" unicode="{" horiz-adv-x="1204" 
d="M70 1348q307 70 307 372v664q0 346 139 474t365 128q110 0 200 -16q-151 -61 -198 -153.5t-47 -215.5v-856q0 -257 -263 -397q105 -22 184 -149t79 -286v-819q0 -152 74 -262.5t212 -150.5q-124 -13 -233 -13q-297 0 -404.5 128t-107.5 335v750q0 162 -59 281.5
t-248 185.5z" />
    <glyph glyph-name="bar" unicode="|" horiz-adv-x="750" 
d="M201 0v2957h360v-2957h-360z" />
    <glyph glyph-name="braceright" unicode="}" horiz-adv-x="1204" 
d="M1118 1348q-307 70 -307 372v664q0 347 -139 474.5t-365 127.5q-109 0 -201 -16q155 -50 200.5 -145t45.5 -224v-856q0 -257 262 -397q-103 -22 -182.5 -149.5t-79.5 -285.5v-819q0 -154 -73.5 -263.5t-212.5 -149.5q124 -13 233 -13q297 0 404.5 127t107.5 336v750
q0 162 59 281.5t248 185.5z" />
    <glyph glyph-name="asciitilde" unicode="~" 
d="M279 655l-222 279q134 266 247.5 381t260.5 115q160 0 264 -44t255.5 -129.5t218.5 -85.5q149 0 303 295l229 -278q-202 -483 -532 -483q-87 0 -178 32t-218.5 97t-197 94.5t-131.5 29.5q-77 0 -128 -44.5t-107.5 -146t-63.5 -112.5z" />
    <glyph glyph-name="bullet" horiz-adv-x="766" 
d="M684 1741v-430l-397 -271l397 -356v-438l-606 561v418z" />
    <glyph glyph-name="brokenbar" unicode="&#xa6;" horiz-adv-x="750" 
d="M201 0v2957h360v-2957h-360z" />
    <glyph glyph-name="section" unicode="&#xa7;" horiz-adv-x="2064" 
d="M528 1896q-86 56 -143 184t-57 275q0 206 101.5 359.5t271.5 233t364 79.5q169 0 327 -62t270.5 -213.5t135.5 -400.5h-500q0 129 -73 195.5t-172 66.5q-94 0 -170 -59.5t-76 -145.5q0 -77 130 -221t370 -311q249 -176 364.5 -281t166 -220t50.5 -290q0 -169 -85 -319.5
t-255 -233.5q142 -149 196 -309.5t54 -365.5q0 -181 -103.5 -311t-282 -196.5t-400.5 -66.5q-299 0 -532.5 173.5t-233.5 572.5h504q0 -172 83 -258t191 -86q101 0 187.5 77.5t86.5 180.5q0 130 -124 249t-409.5 331.5t-416.5 348.5q-147 154 -147 418q0 175 84 341.5
t243 264.5zM1339 1188l-532 434q-66 -26 -111 -98.5t-45 -143.5q0 -101 66 -159l528 -447q79 0 129.5 72.5t50.5 161.5q0 48 -26.5 102.5t-59.5 77.5z" />
    <glyph glyph-name="afii10023" unicode="&#xa8;" horiz-adv-x="1933" 
d="M238 0v2953h1581v-475h-1020v-668h930v-446h-930v-913h1020v-451h-1581zM352 3211v447h475v-447h-475zM1126 3658h476v-447h-476v447z" />
    <glyph glyph-name="copyright" unicode="&#xa9;" horiz-adv-x="3019" 
d="M3068 1475q0 -356 -125 -648t-343.5 -493.5t-499 -306.5t-589.5 -105q-308 0 -588 105t-499.5 308t-344 493.5t-124.5 646.5q0 357 124.5 646.5t342.5 489.5t498 304t591 104q312 0 592.5 -104t497.5 -303t342 -489.5t125 -647.5zM2621 1475q0 260 -87 481t-241 379
t-355.5 242.5t-426.5 84.5q-306 0 -560.5 -149.5t-402 -420.5t-147.5 -617q0 -348 147.5 -622t402.5 -424t560 -150q225 0 426 85t356 245.5t241.5 382.5t86.5 483zM1937 1241h369q-46 -300 -251.5 -471.5t-481.5 -171.5q-251 0 -445.5 117t-300.5 320t-106 452
q0 254 102 455.5t294.5 315.5t447.5 114q187 0 339 -71.5t253 -212.5t133 -343h-353q-26 135 -128 202.5t-244 67.5q-130 0 -226 -64t-146 -181.5t-50 -274.5q0 -152 54.5 -275t153 -194.5t222.5 -71.5q156 0 254 73.5t110 213.5z" />
    <glyph glyph-name="afii10053" unicode="&#xaa;" horiz-adv-x="2154" 
d="M1978 2060h-561q0 248 -76.5 374t-263.5 126q-191 0 -261.5 -124.5t-70.5 -375.5v-262h472v-446h-472v-500q0 -219 85.5 -337t246.5 -118q132 0 206.5 52t104 151.5t29.5 251.5v205h561v-144q0 -340 -96 -554t-295.5 -313t-509.5 -99q-295 0 -496.5 101t-305 317.5
t-103.5 556.5v1261q0 246 100 433t303.5 291t501.5 104q291 0 493 -103.5t305 -291t103 -433.5v-123z" />
    <glyph glyph-name="guillemotleft" unicode="&#xab;" horiz-adv-x="1524" 
d="M1446 1741v-430l-410 -271l410 -356v-438l-619 561v418zM94 1225l611 516v-430l-410 -271l410 -356v-438l-611 561v418z" />
    <glyph glyph-name="logicalnot" unicode="&#xac;" horiz-adv-x="1982" 
d="M1855 1647h-1761v-435h1327v-712h434v1147z" />
    <glyph glyph-name="minus" unicode="&#xad;" horiz-adv-x="1184" 
d="M143 1733h926v-340h-926v340z" />
    <glyph glyph-name="registered" unicode="&#xae;" horiz-adv-x="3019" 
d="M1253 1339v-700h-356v1667h623q339 0 511.5 -114.5t172.5 -389.5q0 -405 -402 -434l426 -729h-422l-385 700h-168zM1253 1622h316q133 0 193.5 44t60.5 173q0 114 -90 149t-230 35h-250v-401zM3064 1470q0 -355 -124 -645t-341.5 -492t-498.5 -306.5t-589 -104.5
q-307 0 -589.5 105t-500.5 306.5t-342 491.5t-124 645q0 356 124 647t341 491t498.5 305.5t592.5 105.5q312 0 592.5 -105t496.5 -305.5t340 -491.5t124 -647zM2617 1470q0 261 -87 482t-240 378.5t-354 242.5t-425 85q-306 0 -560.5 -149.5t-402 -421.5t-147.5 -617
t147.5 -618t403 -423t559.5 -150q294 0 549.5 150.5t406 422.5t150.5 618z" />
    <glyph glyph-name="afii10056" unicode="&#xaf;" horiz-adv-x="1389" 
d="M410 2957h561v-2957h-561v2957zM70 3211v447h475v-447h-475zM844 3658h475v-447h-475v447z" />
    <glyph glyph-name="degree" unicode="&#xb0;" horiz-adv-x="1573" 
d="M1339 2421q0 -162 -79.5 -297t-215.5 -214t-294 -79q-161 0 -297 78.5t-214.5 214.5t-78.5 297q0 164 78 299t214 213t298 78q159 0 294.5 -80t215 -215.5t79.5 -294.5zM471 2421q0 -116 82.5 -195.5t200.5 -79.5q113 0 193.5 79.5t80.5 195.5q0 113 -81.5 193.5
t-196.5 80.5q-114 0 -196.5 -81t-82.5 -193z" />
    <glyph glyph-name="plusminus" unicode="&#xb1;" horiz-adv-x="1966" 
d="M766 1495v524h434v-524h668v-434h-668v-524h-434v524h-664v434h664zM102 -53v430h1766v-430h-1766z" />
    <glyph glyph-name="afii10055" unicode="&#xb2;" horiz-adv-x="848" 
d="M143 0v2957h562v-2957h-562z" />
    <glyph glyph-name="afii10103" unicode="&#xb3;" horiz-adv-x="860" 
d="M201 2454v503h504v-503h-504zM201 0v2236h504v-2236h-504z" />
    <glyph glyph-name="afii10098" unicode="&#xb4;" horiz-adv-x="1303" 
d="M528 2957h648l-590 -557h-402z" />
    <glyph glyph-name="paragraph" unicode="&#xb6;" horiz-adv-x="2212" 
d="M750 1602q-203 0 -353 101.5t-228.5 265t-78.5 337.5q0 183 76.5 345t225.5 261t358 99h1372v-480h-193v-2937h-463v2937h-254v-2937h-462v2008z" />
    <glyph glyph-name="periodcentered" unicode="&#xb7;" horiz-adv-x="1307" 
d="M913 1020h-516v-516h516v516z" />
    <glyph glyph-name="afii10071" unicode="&#xb8;" horiz-adv-x="1847" 
d="M135 643v942q0 244 97.5 403.5t269.5 232.5t403 73q228 0 402 -74t271 -233t97 -402v-520h-1036v-487q0 -250 266 -250q123 0 194.5 66.5t71.5 183.5v127h504v-62q0 -243 -97 -402t-271 -233t-402 -74q-231 0 -403 73t-269.5 232.5t-97.5 403.5zM639 1651v-217h532v217
q0 117 -71.5 183.5t-194.5 66.5q-125 0 -195.5 -64.5t-70.5 -185.5zM279 2511v446h475v-446h-475zM1053 2957h475v-446h-475v446z" />
    <glyph glyph-name="afii61352" unicode="&#xb9;" horiz-adv-x="3535" 
d="M164 0v2961h610l823 -2150q-38 196 -55.5 446t-17.5 492v1212h528v-2961h-606l-823 2150q69 -330 69 -712v-1438h-528zM3404 1012v663q0 175 -149.5 280t-346.5 105q-189 0 -338 -104.5t-149 -280.5v-663q0 -175 148.5 -278t338.5 -103q198 0 347 103t149 278zM3101 1634
v-585q0 -87 -56 -134t-137 -47q-75 0 -129.5 48t-54.5 133v585q0 85 54.5 137t129.5 52q82 0 137.5 -51t55.5 -138zM2421 418h999v-242h-999v242z" />
    <glyph glyph-name="afii10101" unicode="&#xba;" horiz-adv-x="1716" 
d="M1077 1495v184q0 98 -55.5 149.5t-140.5 51.5q-98 0 -155.5 -57.5t-57.5 -171.5v-267h319v-397h-319v-409q0 -230 213 -230q83 0 139.5 51.5t56.5 149.5v246h504v-271q0 -188 -103 -322t-264.5 -201t-332.5 -67q-328 0 -533 175t-205 456v1098q0 186 92.5 330t261 222.5
t384.5 78.5q171 0 332.5 -67t264.5 -201t103 -322v-209h-504z" />
    <glyph glyph-name="guillemotright" unicode="&#xbb;" horiz-adv-x="1544" 
d="M864 1782l619 -537v-401l-619 -533v430l373 324l-373 278v439zM115 1343v439l618 -537v-401l-618 -533v430l372 324z" />
    <glyph glyph-name="afii10105" unicode="&#xbc;" horiz-adv-x="1966" 
d="M668 1016l-566 565l308 307l565 -565l586 586l307 -307l-586 -586l586 -586l-307 -307l-586 586l-565 -566l-308 308z" />
    <glyph glyph-name="afii10054" unicode="&#xbd;" horiz-adv-x="1966" 
d="M102 786v435h1766v-435h-1766zM1229 1507h-496v451h496v-451zM1229 49h-496v451h496v-451z" />
    <glyph glyph-name="afii10102" unicode="&#xbe;" horiz-adv-x="3277" 
d="M2617 0v524h533v-524h-533zM643 0h-532v524h532v-524zM1364 0v524h532v-524h-532z" />
    <glyph glyph-name="afii10104" unicode="&#xbf;" horiz-adv-x="1065" 
d="M287 0v2236h504v-2236h-504zM-94 2511v446h475v-446h-475zM680 2957h475v-446h-475v446z" />
    <glyph glyph-name="afii10017" unicode="&#xc0;" horiz-adv-x="2208" 
d="M20 0l750 2957h754l655 -2957h-606l-139 770h-635l-176 -770h-603zM868 1208h496l-225 1377z" />
    <glyph glyph-name="afii10018" unicode="&#xc1;" horiz-adv-x="2154" 
d="M782 1335v-913h320q332 0 332 459q0 217 -88.5 335.5t-247.5 118.5h-316zM1303 0h-1082v2957h1569v-422h-1008v-753h471q168 0 308 -69.5t239 -188t153 -269t54 -309.5q0 -434 -186.5 -690t-517.5 -256z" />
    <glyph glyph-name="afii10019" unicode="&#xc2;" horiz-adv-x="2159" 
d="M766 2535v-778h295q348 0 348 402q0 195 -77.5 285.5t-262.5 90.5h-303zM766 422h360q161 0 236.5 107t75.5 352q0 454 -312 454h-360v-913zM1335 0h-1130v2957h1036q247 0 411.5 -98t241 -261.5t76.5 -361.5q0 -142 -49.5 -284.5t-140 -241t-207.5 -121.5
q223 -90 330.5 -259.5t107.5 -452.5q0 -262 -75.5 -459t-227.5 -307.5t-373 -110.5z" />
    <glyph glyph-name="afii10020" unicode="&#xc3;" horiz-adv-x="1860" 
d="M233 2957v-2957h562v2507h1020v450h-1582z" />
    <glyph glyph-name="afii10021" unicode="&#xc4;" horiz-adv-x="2535" 
d="M283 451q81 180 130 330.5t80 322t45.5 394t14.5 538.5v921h1679v-2506h181v-1045h-541v594h-1225v-594h-541v1045h177zM1671 2507h-565v-672q0 -484 -62.5 -783.5t-203.5 -600.5h831v2056z" />
    <glyph glyph-name="afii10022" unicode="&#xc5;" horiz-adv-x="1933" 
d="M205 0v2957h1581v-475h-1020v-672h930v-446h-930v-913h1020v-451h-1581z" />
    <glyph glyph-name="afii10024" unicode="&#xc6;" horiz-adv-x="3342" 
d="M1942 2957h-562v-1282l-680 1282h-634l749 -1282l-774 -1675h627l491 1180l221 -291v-889h562v889l221 291l491 -1180h627l-774 1675l749 1282h-635l-679 -1282v1282z" />
    <glyph glyph-name="afii10025" unicode="&#xc7;" horiz-adv-x="2109" 
d="M987 1348h-119v421h119q166 0 267.5 95t101.5 282q0 173 -74 293.5t-238 120.5q-161 0 -248 -125t-87 -330h-545q0 258 104.5 464.5t305 324t470.5 117.5q220 0 422.5 -77t334.5 -253.5t132 -456.5q0 -149 -58 -285t-163 -230t-237 -128q231 -58 365 -250t134 -516
q0 -294 -107.5 -490.5t-312.5 -293.5t-493 -97q-258 0 -471 85.5t-342 278.5t-129 493h545q0 -406 364 -406q369 0 369 487q0 249 -110.5 362.5t-299.5 113.5z" />
    <glyph glyph-name="afii10026" unicode="&#xc8;" horiz-adv-x="2302" 
d="M2089 0v2957h-606l-824 -2150q23 103 40.5 272.5t25.5 370.5t8 397v1110h-528v-2957h606l823 2146q-73 -350 -73 -1028v-1118h528z" />
    <glyph glyph-name="afii10027" unicode="&#xc9;" horiz-adv-x="2302" 
d="M2089 0v2957h-606l-824 -2150q33 161 49 338.5t20.5 344t4.5 419.5v1048h-528v-2957h606l823 2146q-73 -360 -73 -1102v-1044h528zM541 3760q0 -614 577 -614q594 0 594 614h-291q0 -163 -78.5 -249.5t-216.5 -86.5t-216.5 87t-78.5 249h-290z" />
    <glyph glyph-name="afii10028" unicode="&#xca;" horiz-adv-x="2195" 
d="M205 0v2957h561v-1282l680 1282h635l-750 -1282l774 -1675h-626l-492 1180l-221 -291v-889h-561z" />
    <glyph glyph-name="afii10029" unicode="&#xcb;" horiz-adv-x="2421" 
d="M479 2957h1712v-2957h-561v2511h-598v-1139q0 -502 -61.5 -814.5t-200.5 -461.5t-373 -149q-203 0 -340 37v413q62 -20 181 -20q73 0 115.5 35t71 148.5t41.5 344.5t13 635v1417z" />
    <glyph glyph-name="afii10030" unicode="&#xcc;" horiz-adv-x="2998" 
d="M205 2957v-2957h528v2675h4l557 -2675h402l557 2679h4v-2679h528v2957h-897l-393 -1921l-393 1921h-897z" />
    <glyph glyph-name="afii10031" unicode="&#xcd;" horiz-adv-x="2294" 
d="M205 0v2957h561v-1147h741v1147h561v-2957h-561v1364h-741v-1364h-561z" />
    <glyph glyph-name="afii10032" unicode="&#xce;" horiz-adv-x="2269" 
d="M172 1999v-1057q0 -995 963 -995q297 0 508 94.5t326.5 315.5t115.5 585v1057q0 364 -116 589.5t-326.5 324t-507.5 98.5q-293 0 -508 -100.5t-335 -326t-120 -585.5zM745 872v1192q0 496 390 496q181 0 278.5 -133t97.5 -371v-1184q0 -231 -96.5 -353t-279.5 -122
q-390 0 -390 475z" />
    <glyph glyph-name="afii10033" unicode="&#xcf;" horiz-adv-x="2298" 
d="M205 0v2957h1863v-2957h-561v2511h-741v-2511h-561z" />
    <glyph glyph-name="afii10034" unicode="&#xd0;" horiz-adv-x="2191" 
d="M205 0v2957h1061q233 0 411 -115t274.5 -312.5t96.5 -436.5q0 -244 -98.5 -447.5t-279 -322.5t-413.5 -119h-491v-1204h-561zM1049 2519h-283v-877h283q421 0 421 443q0 434 -421 434z" />
    <glyph glyph-name="afii10035" unicode="&#xd1;" horiz-adv-x="2118" 
d="M1393 1995v65q0 277 -76 388.5t-256 111.5q-181 0 -260.5 -112.5t-79.5 -387.5v-1163q0 -283 77.5 -397.5t258.5 -114.5q174 0 255 117t81 395v160h565v-135q0 -288 -82 -508t-282.5 -350t-532.5 -130q-510 0 -712 268.5t-202 719.5v1073q0 515 231 765.5t691 250.5
q280 0 481.5 -105t304.5 -303.5t103 -468.5v-139h-565z" />
    <glyph glyph-name="afii10036" unicode="&#xd2;" horiz-adv-x="2003" 
d="M1933 2957v-475h-643v-2482h-561v2482h-659v475h1863z" />
    <glyph glyph-name="afii10037" unicode="&#xd3;" horiz-adv-x="2220" 
d="M33 2957h631l454 -1568l455 1568h614l-803 -2392q-75 -227 -162.5 -364.5t-193.5 -195.5t-246 -58q-181 0 -340 53v430q19 -5 41.5 -13t53 -14t61.5 -6q169 0 246 221z" />
    <glyph glyph-name="afii10038" unicode="&#xd4;" horiz-adv-x="3092" 
d="M1819 0h-562v365h-163q-253 0 -474.5 118.5t-357 371.5t-135.5 632q0 368 137 625.5t357.5 383t472.5 125.5h163v336h562v-336h163q252 0 472.5 -125.5t357.5 -383t137 -625.5q0 -379 -135.5 -632t-357 -371.5t-474.5 -118.5h-163v-365zM1257 2183h-131
q-197 0 -311.5 -191t-114.5 -505q0 -329 111 -506.5t315 -177.5h131v1380zM1950 2183h-131v-1380h131q206 0 316 177.5t110 506.5q0 314 -114 505t-312 191z" />
    <glyph glyph-name="afii10039" unicode="&#xd5;" horiz-adv-x="2249" 
d="M774 1520l-684 1437h651l381 -962l402 962h630l-729 -1437l754 -1520h-627l-430 1090l-446 -1090h-615z" />
    <glyph glyph-name="afii10040" unicode="&#xd6;" horiz-adv-x="2363" 
d="M766 446h741v2511h561v-2511h181v-1044h-541v598h-1503v2957h561v-2511z" />
    <glyph glyph-name="afii10041" unicode="&#xd7;" horiz-adv-x="2269" 
d="M2032 0v2957h-562v-1220q-104 -29 -282 -29q-422 0 -422 442v807h-561v-880q0 -243 97.5 -428.5t277.5 -288.5t415 -103q271 0 475 41v-1298h562z" />
    <glyph glyph-name="afii10042" unicode="&#xd8;" horiz-adv-x="3318" 
d="M3105 0h-2896v2957h561v-2506h606v2506h561v-2506h607v2506h561v-2957z" />
    <glyph glyph-name="afii10043" unicode="&#xd9;" horiz-adv-x="3387" 
d="M225 2957h561v-2506h607v2506h561v-2506h606v2506h561v-2506h180v-1045h-540v594h-2536v2957z" />
    <glyph glyph-name="afii10044" unicode="&#xda;" horiz-adv-x="2400" 
d="M1036 1335v-913h324q163 0 245.5 108.5t82.5 350.5q0 217 -88.5 335.5t-247.5 118.5h-316zM-33 2957h1069v-1175h471q168 0 308 -69.5t239 -188t153 -269t54 -309.5q0 -434 -186.5 -690t-518.5 -256h-1081v2535h-508v422z" />
    <glyph glyph-name="afii10045" unicode="&#xdb;" horiz-adv-x="3219" 
d="M778 1335v-913h324q163 0 245.5 108.5t82.5 350.5q0 217 -88.5 335.5t-247.5 118.5h-316zM217 2957h561v-1175h471q168 0 308 -69.5t239 -188t153 -269t54 -309.5q0 -434 -186.5 -690t-518.5 -256h-1081v2957zM2429 0v2957h561v-2957h-561z" />
    <glyph glyph-name="afii10046" unicode="&#xdc;" horiz-adv-x="2138" 
d="M766 1335v-913h324q162 0 244.5 108.5t82.5 350.5q0 217 -88.5 335.5t-247.5 118.5h-315zM205 2957h561v-1175h471q168 0 308 -69.5t239 -188t153 -269t54 -309.5q0 -434 -186.5 -690t-518.5 -256h-1081v2957z" />
    <glyph glyph-name="afii10047" unicode="&#xdd;" horiz-adv-x="2154" 
d="M737 2060h-561v123q0 246 103 433.5t305 291t493 103.5q300 0 503 -104t302.5 -291t99.5 -433v-1261q0 -341 -101.5 -557t-300.5 -317t-495 -101q-310 0 -511 99t-299.5 313.5t-98.5 553.5v144h561v-205q0 -152 30 -252t104.5 -151.5t205.5 -51.5q163 0 247.5 118
t84.5 337v500h-471v446h471v262q0 253 -70 376.5t-262 123.5q-187 0 -263.5 -127t-76.5 -373z" />
    <glyph glyph-name="afii10048" unicode="&#xde;" horiz-adv-x="3437" 
d="M799 1786h508v242q0 358 123.5 576.5t341 312.5t514.5 94q300 0 513.5 -94t333 -315t119.5 -583v-1081q0 -363 -119.5 -583.5t-333 -314t-513.5 -93.5q-296 0 -514 93.5t-341.5 313t-123.5 576.5v405h-508v-1335h-561v2957h561v-1171zM1880 2073v-1188
q0 -235 103.5 -361.5t302.5 -126.5q183 0 288 128t105 360v1188q0 231 -105 359t-288 128q-199 0 -302.5 -126.5t-103.5 -360.5z" />
    <glyph glyph-name="afii10049" unicode="&#xdf;" horiz-adv-x="2232" 
d="M2003 0v2957h-1081q-232 0 -405.5 -115t-265 -312.5t-91.5 -436.5q0 -186 55 -349t161 -287.5t247 -186.5l-574 -1270h610l508 1204h275v-1204h561zM1159 2519h283v-877h-283q-422 0 -422 443q0 434 422 434z" />
    <glyph glyph-name="afii10065" unicode="&#xe0;" 
d="M1184 610v545l-332 -213q-172 -111 -172 -319q0 -137 54 -222.5t167 -85.5q123 0 203 76t80 219zM717 1294q238 101 352.5 182t114.5 207q0 197 -242 197q-116 0 -189 -72.5t-73 -214.5v-45h-492v111q0 131 54.5 247t156.5 203.5t239 136t300 48.5q348 0 561 -141.5
t213 -432.5v-1392q0 -126 13.5 -200.5t52.5 -127.5h-529q-41 63 -41 213q-81 -142 -189.5 -210.5t-297.5 -68.5q-260 0 -417 157t-157 462q0 192 60.5 326.5t186.5 233.5t323 181z" />
    <glyph glyph-name="afii10066" unicode="&#xe1;" 
d="M590 1909h12q87 128 191.5 207t259.5 79q352 0 524 -189t172 -540v-802q0 -204 -79 -369.5t-255.5 -263t-456.5 -97.5q-286 0 -463 97.5t-254 262.5t-77 370v1036q0 233 45.5 418t134.5 323.5t215.5 228t288.5 128.5q238 59 337 102t130 111h356q-41 -179 -168 -293.5
t-401 -186.5q-160 -42 -264.5 -111.5t-165 -191.5t-82.5 -319zM958 328q133 0 200 60.5t67 209.5v934q0 149 -67 209.5t-200 60.5q-270 0 -270 -270v-934q0 -270 270 -270z" />
    <glyph glyph-name="afii10067" unicode="&#xe2;" horiz-adv-x="1855" 
d="M709 1868v-516h139q299 0 299 258t-299 258h-139zM709 1004v-635h168q311 0 311 307q0 110 -41.5 183.5t-112.5 109t-157 35.5h-168zM205 0v2236h831q160 0 307 -58.5t237.5 -177.5t90.5 -288q0 -201 -98.5 -331.5t-237.5 -184.5q174 -68 275.5 -190.5t101.5 -370.5
q0 -324 -192 -479.5t-463 -155.5h-852z" />
    <glyph glyph-name="afii10068" unicode="&#xe3;" horiz-adv-x="1552" 
d="M205 0v2236h1311v-397h-807v-1839h-504z" />
    <glyph glyph-name="afii10069" unicode="&#xe4;" horiz-adv-x="2097" 
d="M250 397q71 138 112 275t60.5 329t19.5 494v741h1393v-1839h184v-938h-475v541h-962v-541h-476v938h144zM1331 397v1442h-405v-516q0 -364 -38 -541.5t-130 -384.5h573z" />
    <glyph glyph-name="afii10070" unicode="&#xe5;" horiz-adv-x="1847" 
d="M152 643v942q0 244 97 403.5t269.5 232.5t403.5 73q228 0 402 -74t271 -233t97 -402v-520h-1037v-487q0 -120 71 -185t196 -65q122 0 194 67t72 183v127h504v-62q0 -361 -207.5 -535t-562.5 -174q-231 0 -403.5 73t-269.5 232.5t-97 403.5zM655 1651v-217h533v217
q0 116 -72 183t-194 67q-126 0 -196.5 -64.5t-70.5 -185.5z" />
    <glyph glyph-name="afii10072" unicode="&#xe6;" horiz-adv-x="2523" 
d="M1008 2236h483v-852l475 852h516l-520 -909l520 -1327h-553l-311 856l-127 -229v-627h-483v627l-127 229l-312 -856h-553l521 1327l-521 909h516l476 -852v852z" />
    <glyph glyph-name="afii10073" unicode="&#xe7;" horiz-adv-x="1847" 
d="M897 987h-119v369h107q143 0 202.5 71t59.5 211q0 267 -225 267q-132 0 -188.5 -90t-69.5 -263h-496q19 362 230.5 554t519.5 192q215 0 382.5 -76.5t261 -216.5t93.5 -322q0 -355 -357 -491q195 -58 300.5 -208t105.5 -390q0 -324 -206.5 -492t-567.5 -168
q-341 0 -564 183t-223 592h492q0 -381 270 -381q152 0 213.5 86t61.5 262q0 150 -75 230.5t-208 80.5z" />
    <glyph glyph-name="afii10074" unicode="&#xe8;" horiz-adv-x="1929" 
d="M696 901l541 1335h487v-2236h-491v1319l-537 -1319h-491v2236h491v-1335z" />
    <glyph glyph-name="afii10075" unicode="&#xe9;" horiz-adv-x="1946" 
d="M696 901l541 1335h487v-2236h-491v1319l-537 -1319h-491v2236h491v-1335zM438 2957h262q0 -130 63.5 -169.5t194.5 -39.5q141 0 212 41.5t71 167.5h262q0 -503 -536 -503q-265 0 -397 142t-132 361z" />
    <glyph glyph-name="afii10076" unicode="&#xea;" horiz-adv-x="1716" 
d="M205 0v2236h504v-831l462 831h529l-529 -901l529 -1335h-561l-312 868l-118 -229v-639h-504z" />
    <glyph glyph-name="afii10077" unicode="&#xeb;" horiz-adv-x="2019" 
d="M389 2236h1409v-2236h-504v1839h-413v-897q0 -380 -65.5 -596t-179.5 -301.5t-276 -85.5q-146 0 -290 41v369q65 -13 110 -13q77 0 116.5 31t59 126t26.5 287t7 584v852z" />
    <glyph glyph-name="afii10078" unicode="&#xec;" horiz-adv-x="2458" 
d="M205 2236h680l332 -1495l331 1495h680v-2236h-491v1585h-4l-357 -1585h-319l-357 1585h-4v-1585h-491v2236z" />
    <glyph glyph-name="afii10079" unicode="&#xed;" horiz-adv-x="1913" 
d="M1192 987h-483v-987h-504v2236h504v-852h483v852h504v-2236h-504v987z" />
    <glyph glyph-name="afii10080" unicode="&#xee;" horiz-adv-x="1896" 
d="M152 664v901q0 205 77 369.5t254 262t463 97.5q280 0 457 -97.5t255.5 -262.5t78.5 -369v-901q0 -204 -79 -369.5t-255.5 -263t-456.5 -97.5q-286 0 -463 97.5t-254 262.5t-77 370zM1212 598v1032q0 149 -66.5 210t-199.5 61q-270 0 -270 -271v-1032q0 -270 270 -270
q133 0 199.5 60t66.5 210z" />
    <glyph glyph-name="afii10081" unicode="&#xef;" horiz-adv-x="1921" 
d="M1192 1839h-483v-1839h-504v2236h1491v-2236h-504v1839z" />
    <glyph glyph-name="afii10082" unicode="&#xf0;" horiz-adv-x="1901" 
d="M717 1606v-967q0 -143 77.5 -227t172.5 -84q106 0 173.5 83t67.5 228v967q0 135 -66 204.5t-175 69.5q-97 0 -173.5 -72.5t-76.5 -201.5zM717 238v-943h-504v2941h504v-249q56 147 176 227t258 80q169 0 300.5 -65t206.5 -194t75 -311v-1073q0 -368 -165 -542.5
t-417 -174.5q-304 0 -434 304z" />
    <glyph glyph-name="afii10083" unicode="&#xf1;" horiz-adv-x="1749" 
d="M1077 1425v254q0 98 -55.5 149.5t-140.5 51.5q-98 0 -155.5 -57.5t-57.5 -171.5v-1073q0 -230 213 -230q83 0 139.5 51.5t56.5 149.5v315h504v-340q0 -188 -103 -322t-264.5 -201t-332.5 -67q-328 0 -533 175t-205 456v1098q0 186 92.5 330t261 222.5t384.5 78.5
q171 0 332.5 -67t264.5 -201t103 -322v-279h-504z" />
    <glyph glyph-name="afii10084" unicode="&#xf2;" horiz-adv-x="1630" 
d="M557 0v1839h-516v397h1536v-397h-516v-1839h-504z" />
    <glyph glyph-name="afii10085" unicode="&#xf3;" horiz-adv-x="1778" 
d="M594 2236l299 -1716h8l287 1716h528l-594 -2519q-44 -187 -109 -284.5t-163.5 -135.5t-259.5 -38q-141 0 -266 16v381h184q110 0 110 143q0 28 -114 499.5t-471 1937.5h561z" />
    <glyph glyph-name="afii10086" unicode="&#xf4;" horiz-adv-x="2855" 
d="M1663 2957h-504v-970q-57 148 -176.5 227.5t-257.5 79.5q-259 0 -420.5 -148.5t-161.5 -421.5v-1073q0 -368 165 -542.5t417 -174.5q304 0 434 304v-943h504v943q130 -304 434 -304q252 0 417 174.5t165 542.5v1073q0 182 -75 311t-206.5 194t-300.5 65q-138 0 -258 -80
t-176 -227v970zM1663 1606q0 129 76.5 201.5t173.5 72.5q109 0 175 -69.5t66 -204.5v-967q0 -145 -67.5 -228t-173.5 -83q-95 0 -172.5 84t-77.5 227v967zM1159 1606v-967q0 -143 -77.5 -227t-172.5 -84q-106 0 -173.5 84t-67.5 227v967q0 133 66 203.5t175 70.5
q97 0 173.5 -72.5t76.5 -201.5z" />
    <glyph glyph-name="afii10087" unicode="&#xf5;" horiz-adv-x="1733" 
d="M1683 2236h-557l-254 -618l-254 618h-557l557 -1118l-585 -1118h585l254 639l254 -639h586l-586 1118z" />
    <glyph glyph-name="afii10088" unicode="&#xf6;" horiz-adv-x="1978" 
d="M709 397h483v1839h504v-1839h180v-938h-475v541h-1196v2236h504v-1839z" />
    <glyph glyph-name="afii10089" unicode="&#xf7;" horiz-adv-x="1905" 
d="M1675 2236v-2236h-504v983q-171 -70 -430 -70q-247 0 -402 159.5t-155 479.5v684h504v-634q0 -275 242 -275q189 0 241 37v872h504z" />
    <glyph glyph-name="afii10090" unicode="&#xf8;" horiz-adv-x="2867" 
d="M696 2236v-1839h484v1839h491v-1839h483v1839h492v-2236h-2441v2236h491z" />
    <glyph glyph-name="afii10091" unicode="&#xf9;" horiz-adv-x="2908" 
d="M700 2236v-1839h484v1839h491v-1839h484v1839h491v-1839h168v-942h-467v545h-2142v2236h491z" />
    <glyph glyph-name="afii10092" unicode="&#xfa;" horiz-adv-x="2081" 
d="M918 1004v-619h163q312 0 312 311q0 157 -87 232.5t-225 75.5h-163zM918 2236v-847h323q170 0 325.5 -78.5t253 -235t97.5 -379.5t-98 -380.5t-255 -236.5t-323 -79h-827v1839h-398v397h902z" />
    <glyph glyph-name="afii10093" unicode="&#xfb;" horiz-adv-x="2753" 
d="M709 1004v-619h163q312 0 312 311q0 157 -87 232.5t-225 75.5h-163zM205 0v2236h504v-847h323q170 0 325.5 -78.5t253 -235t97.5 -379.5t-98 -380.5t-255 -236.5t-323 -79h-827zM2032 0v2236h503v-2236h-503z" />
    <glyph glyph-name="afii10094" unicode="&#xfc;" horiz-adv-x="1843" 
d="M709 1004v-619h163q312 0 312 311q0 157 -87 232.5t-225 75.5h-163zM205 0v2236h504v-847h323q170 0 325.5 -78.5t253 -235t97.5 -379.5t-98 -380.5t-255 -236.5t-323 -79h-827z" />
    <glyph glyph-name="afii10095" unicode="&#xfd;" horiz-adv-x="1716" 
d="M643 1495v184q0 96 55.5 148.5t141.5 52.5q98 0 155.5 -56.5t57.5 -172.5v-267h-320v-397h320v-409q0 -230 -213 -230q-84 0 -140.5 52.5t-56.5 148.5v246h-504v-271q0 -188 103 -322t264 -201t334 -67q327 0 532 175t205 456v1098q0 186 -92.5 330t-260 222.5
t-384.5 78.5q-173 0 -334 -67t-264 -201t-103 -322v-209h504z" />
    <glyph glyph-name="afii10096" unicode="&#xfe;" horiz-adv-x="2879" 
d="M709 1384h397v181q0 155 42 285.5t135 230t247 156.5t371 57q281 0 457 -97.5t254.5 -262.5t78.5 -369v-901q0 -204 -79 -369.5t-254.5 -263t-456.5 -97.5q-286 0 -463 97t-254.5 262t-77.5 371v323h-397v-987h-504v2236h504v-852zM2167 598v1032q0 148 -67 209.5
t-199 61.5q-271 0 -271 -271v-1032q0 -270 271 -270q132 0 199 60.5t67 209.5z" />
    <glyph glyph-name="afii10097" unicode="&#xff;" horiz-adv-x="1868" 
d="M1139 1233v618h-197q-125 0 -201.5 -80.5t-76.5 -230.5q0 -307 258 -307h217zM1642 2236v-2236h-503v848h-197l-332 -848h-544l409 934q-336 188 -336 606q0 224 98.5 381t255 236t322.5 79h827z" />
    <glyph glyph-name="emdash" unicode="&#x2013;" horiz-adv-x="1630" 
d="M106 1135v344h1414v-344h-1414z" />
    <glyph glyph-name="endash" unicode="&#x2014;" horiz-adv-x="2822" 
d="M106 1053v426h2626v-426h-2626z" />
    <glyph glyph-name="quoteleft" unicode="&#x2018;" horiz-adv-x="979" 
d="M741 1884h-491v586q0 106 58 219.5t163.5 190.5t237.5 77v-204q-250 0 -250 -345h282v-524z" />
    <glyph glyph-name="quoteright" unicode="&#x2019;" horiz-adv-x="946" 
d="M225 2957h492v-585q0 -173 -130.5 -330.5t-328.5 -157.5v205q250 0 250 344h-283v524z" />
    <glyph glyph-name="quotesinglebase" unicode="&#x201a;" horiz-adv-x="946" 
d="M225 524h492v-585q0 -122 -63 -235t-170 -183t-226 -70v205q250 0 250 344h-283v524z" />
    <glyph glyph-name="quotedblleft" unicode="&#x201c;" horiz-adv-x="1761" 
d="M741 2408v-524h-491v586q0 106 58 219.5t163.5 190.5t237.5 77v-204q-250 0 -250 -345h282zM1552 2408v-524h-491v586q0 106 58 219.5t163.5 190.5t237.5 77v-204q-250 0 -250 -345h282z" />
    <glyph glyph-name="quotedblright" unicode="&#x201d;" horiz-adv-x="1761" 
d="M1061 2433v524h491v-585q0 -106 -58 -220t-163 -191t-237 -77v205q249 0 249 344h-282zM250 2433v524h495v-585q0 -104 -59 -219.5t-165 -192t-238 -76.5v205q254 0 254 344h-287z" />
    <glyph glyph-name="quotedblbase" unicode="&#x201e;" horiz-adv-x="1737" 
d="M225 0v524h492v-585q0 -106 -55.5 -220.5t-161 -191t-242.5 -76.5v205q250 0 250 344h-283zM999 0v524h492v-585q0 -105 -55 -220.5t-160 -191.5t-244 -76v205q250 0 250 344h-283z" />
    <glyph glyph-name="FDW149" unicode="&#x2022;" horiz-adv-x="2175" 
d="M1094 2236q205 0 381 -101.5t278 -274.5t102 -377t-102.5 -379.5t-278 -279t-380.5 -103.5t-379 103.5t-274.5 278.5t-100.5 380q0 204 100.5 377.5t274 274.5t379.5 101z" />
    <glyph glyph-name="ellipsis" unicode="&#x2026;" horiz-adv-x="3277" 
d="M2617 0v524h533v-524h-533zM643 0h-532v524h532v-524zM1364 0v524h532v-524h-532z" />
    <glyph glyph-name="trademark" unicode="&#x2122;" horiz-adv-x="3195" 
d="M532 1393v1331h-479v295h1254v-295h-471v-1331h-304zM1769 1393h-303v1626h516l320 -967l311 967h504v-1626h-307v1282l-414 -1282h-188l-439 1282v-1282z" />
    </font>
</defs>
</svg>
